<svg xmlns="http://www.w3.org/2000/svg" xmlns:xlink="http://www.w3.org/1999/xlink" viewBox="0 0 4800 2700"><defs><style>.cls-1{fill:none;}.cls-2{fill:#cbecf5;}.cls-3{clip-path:url(#clip-path);}.cls-4{fill:#02996a;}.cls-5{fill:#283035;}.cls-6{fill:#999;}.cls-7{fill:#fff;}.cls-42,.cls-8{fill:#32526e;}.cls-9{fill:#cbc7be;}.cls-10{fill:#d6d0c8;}.cls-11{fill:#efebe1;}.cls-12{fill:#d4cfc7;}.cls-13{isolation:isolate;}.cls-14{opacity:0.3;}.cls-15{opacity:0.5;}.cls-16{fill:#176537;}.cls-17{fill:#02986a;}.cls-18{fill:#10b680;}.cls-19{fill:#34d197;}.cls-20{fill:#703e03;}.cls-21{opacity:0.21;}.cls-22{fill:#6536d8;}.cls-23{fill:#f0c6b4;}.cls-24{fill:#eba298;}.cls-25{fill:#0c4156;}.cls-26{fill:#0f4b6a;}.cls-27{fill:#773ceb;}.cls-28{fill:#001f51;}.cls-29{fill:#4d1b0b;}.cls-30{fill:#303033;}.cls-31{fill:#e31b25;}.cls-32{fill:#302828;}.cls-33,.cls-34{fill-rule:evenodd;}.cls-33,.cls-36{opacity:0.14;}.cls-34{fill:#ea4546;}.cls-35,.cls-41,.cls-44{fill:#f5f5f5;}.cls-37{fill:#9d9d9d;}.cls-38{fill:#f9f5ef;}.cls-39{fill:#ccc8bf;}.cls-40,.cls-45{fill:#bbbcbd;}.cls-41{font-size:49.04px;}.cls-41,.cls-42,.cls-44,.cls-45,.cls-46{font-family:OpenSans-Bold, Open Sans;font-weight:700;}.cls-42{font-size:78.42px;}.cls-43{font-size:50px;}.cls-44{font-size:97.69px;}.cls-45{font-size:32.13px;}.cls-46{font-size:101.95px;fill:#9f9fa0;}</style><clipPath id="clip-path"><rect class="cls-1" width="4800" height="2700"/></clipPath></defs><g id="Background"><rect class="cls-2" width="4800" height="2700"/></g><g id="Layer_4" data-name="Layer 4"><g class="cls-3"><polygon class="cls-4" points="4171.88 0 4800 0 4800 2700 0 2700 0 1183.55 2050.91 0 2520.33 -270.9 2529.16 -275.99 2551.91 -289.12 2583.9 -307.58 2583.92 -307.59 2606.69 -320.73 2606.71 -320.74 2653.99 -348.03 2654 -348.04 2895.62 -487.48 2895.63 -487.48 3020.92 -559.78 3020.93 -559.79 3233.73 -682.59 3289.69 -714.89 3299.4 -720.49 3305.92 -724.25 3600.76 -894.4 3715.48 -960.61 3715.49 -960.61 3729.55 -968.72 3729.56 -968.72 3987.91 -1117.82 4013.18 -1132.4 4227.87 -1205.48 4599.71 -647.76 4599.65 -624.29 4545.85 -593.09 4545.85 -215.91 4171.88 0"/><polygon class="cls-5" points="2297.73 4222.92 7325.15 1320.34 5995.98 552.94 968.56 3455.53 2297.73 4222.92"/><polygon class="cls-5" points="1322.2 1429.62 3100.43 2468.51 3880.87 2020.34 2087.98 988.5 1322.2 1429.62"/><polygon id="Cube_face_-_left" data-name="Cube face - left" class="cls-6" points="1289.63 1411.5 453.76 928.91 453.76 430.63 1289.63 913.22 1289.63 1411.5"/><polygon id="Cube_face_-_top" data-name="Cube face - top" class="cls-7" points="1289.63 913.22 453.76 430.63 2032.3 -480.73 2868.16 1.85 1289.63 913.22"/><polygon class="cls-7" points="1289.62 913.22 1289.62 1411.5 2868.16 500.13 2868.16 1.85 1289.62 913.22"/><polygon class="cls-6" points="854.26 248.76 425.89 394.58 425.89 422.94 1282.14 917.29 1282.14 890.53 854.26 248.76"/><polygon class="cls-8" points="775.68 417 780.82 578.69 677.71 520.95 677.71 360.44 775.68 417"/><g id="Axonometric_Cube" data-name="Axonometric Cube"><polygon id="Cube_face_-_left-2" data-name="Cube face - left" class="cls-9" points="787.43 624.49 790.34 622.82 790.34 600.76 787.43 602.44 787.43 624.49"/><polygon id="Cube_face_-_right" data-name="Cube face - right" class="cls-10" points="659.42 550.59 787.43 624.49 787.43 602.44 659.42 528.54 659.42 550.59"/><polygon id="Cube_face_-_top-2" data-name="Cube face - top" class="cls-11" points="787.43 602.44 790.34 600.76 662.33 526.86 659.42 528.54 787.43 602.44"/></g><polygon class="cls-9" points="667.32 527.19 679.46 520.17 679.44 354.08 665.23 352.24 667.32 527.19"/><polygon class="cls-11" points="776.26 590.09 775.31 575.51 679.46 520.17 667.32 527.19 776.26 590.09"/><polygon class="cls-11" points="777.42 412.11 780.32 410.42 665.09 343.89 662.18 345.57 777.42 412.11"/><polygon class="cls-9" points="678.23 436.91 681.56 434.98 681.55 364.58 678.22 366.51 678.23 436.91"/><polygon class="cls-11" points="772.91 491.58 774.4 488.58 681.56 434.98 678.23 436.91 772.91 491.58"/><polygon class="cls-11" points="772.39 415.1 775.72 413.17 676.52 355.89 673.19 357.83 772.39 415.1"/><path class="cls-10" d="M774.57,498.32l-101.4-58.54,0-81.95,101.4,58.54Zm-96.34-61.41,95.84,55.34,0-70.41-95.83-55.33v70.4Z"/><polygon class="cls-9" points="682.76 518.09 686.09 516.15 686.08 443.39 682.75 445.32 682.76 518.09"/><polygon class="cls-11" points="778.83 573.55 779.73 570.22 686.09 516.15 682.76 518.09 778.83 573.55"/><polygon class="cls-11" points="780.78 498.99 780.25 491.98 681.06 434.71 677.73 436.64 780.78 498.99"/><path class="cls-10" d="M781.41,580.82,677.71,521l0-84.31,103.69,59.87Zm-98.65-62.73,93.64,54.06,0-72.76-93.63-54.07v72.77Z"/><path class="cls-10" d="M777.4,596.66,662.17,530.13V345.58l115.24,66.53ZM670.29,526.44l103.5,59.76V418.39l-103.5-59.76V526.44Z"/><polygon class="cls-9" points="782.92 599.85 785.82 598.16 785.84 413.6 782.94 415.29 782.92 599.85"/><polygon class="cls-11" points="782.94 415.29 785.84 413.6 778.76 409.52 775.86 411.2 782.94 415.29"/><path class="cls-10" d="M782.92,599.85l-7.08-4.09,0-184.56,7.08,4.09Z"/><polygon class="cls-8" points="1063.45 583.14 1068.59 744.84 965.48 687.1 965.48 526.58 1063.45 583.14"/><g id="Axonometric_Cube-2" data-name="Axonometric Cube"><polygon id="Cube_face_-_left-3" data-name="Cube face - left" class="cls-9" points="1075.2 790.64 1078.11 788.96 1078.11 766.91 1075.2 768.59 1075.2 790.64"/><polygon id="Cube_face_-_right-2" data-name="Cube face - right" class="cls-10" points="947.2 716.74 1075.2 790.64 1075.2 768.59 947.2 694.68 947.2 716.74"/><polygon id="Cube_face_-_top-3" data-name="Cube face - top" class="cls-11" points="1075.2 768.59 1078.11 766.91 950.1 693 947.2 694.68 1075.2 768.59"/></g><polygon class="cls-9" points="955.09 693.34 967.23 686.32 967.21 520.23 953 518.39 955.09 693.34"/><polygon class="cls-11" points="1064.03 756.23 1063.08 741.66 967.23 686.32 955.09 693.34 1064.03 756.23"/><polygon class="cls-11" points="1065.19 578.25 1068.09 576.56 952.86 510.03 949.96 511.72 1065.19 578.25"/><polygon class="cls-9" points="966 603.06 969.33 601.12 969.32 530.72 965.99 532.66 966 603.06"/><polygon class="cls-11" points="1060.68 657.72 1062.17 654.72 969.33 601.12 966 603.06 1060.68 657.72"/><polygon class="cls-11" points="1060.16 581.25 1063.49 579.31 964.3 522.04 960.97 523.98 1060.16 581.25"/><path class="cls-10" d="M1062.34,664.46,961,605.92,961,524l101.39,58.54ZM966,603.06l95.84,55.33,0-70.4L966,532.66v70.4Z"/><polygon class="cls-9" points="970.53 684.24 973.86 682.3 973.85 609.53 970.52 611.47 970.53 684.24"/><polygon class="cls-11" points="1066.6 739.7 1067.5 736.36 973.86 682.3 970.53 684.24 1066.6 739.7"/><polygon class="cls-11" points="1068.55 665.14 1068.03 658.12 968.83 600.85 965.5 602.79 1068.55 665.14"/><path class="cls-10" d="M1069.18,747,965.48,687.1l0-84.31,103.7,59.87Zm-98.65-62.73,93.64,54.06V665.53l-93.64-54.06v72.77Z"/><path class="cls-10" d="M1065.17,762.8,949.94,696.27V511.72l115.24,66.53Zm-107.1-70.22,103.5,59.76,0-167.81-103.5-59.76,0,167.81Z"/><polygon class="cls-9" points="1070.69 765.99 1073.6 764.3 1073.61 579.75 1070.71 581.44 1070.69 765.99"/><polygon class="cls-11" points="1070.71 581.44 1073.61 579.75 1066.53 575.66 1063.63 577.35 1070.71 581.44"/><path class="cls-10" d="M1070.69,766l-7.08-4.09,0-184.55,7.08,4.09Z"/><polygon class="cls-8" points="1170.89 987.99 1176.03 1149.68 965.58 1029.97 965.58 869.45 1170.89 987.99"/><g id="Axonometric_Cube-3" data-name="Axonometric Cube"><polygon id="Cube_face_-_left-4" data-name="Cube face - left" class="cls-9" points="1182.64 1195.48 1185.55 1193.8 1185.55 1171.75 1182.64 1173.43 1182.64 1195.48"/><polygon id="Cube_face_-_right-3" data-name="Cube face - right" class="cls-10" points="947.3 1059.61 1182.64 1195.48 1182.64 1173.43 947.3 1037.55 947.3 1059.61"/><polygon id="Cube_face_-_top-4" data-name="Cube face - top" class="cls-11" points="1182.64 1173.43 1185.55 1171.75 950.21 1035.88 947.3 1037.55 1182.64 1173.43"/></g><polygon class="cls-9" points="955.2 1036.21 967.33 1029.19 967.32 863.1 953.11 861.26 955.2 1036.21"/><polygon class="cls-11" points="1064.13 1099.1 1063.19 1084.53 967.33 1029.19 955.2 1036.21 1064.13 1099.1"/><polygon class="cls-9" points="1065.28 1105.67 1068.18 1103.99 1068.2 919.43 1065.29 921.12 1065.28 1105.67"/><polygon class="cls-11" points="1065.29 921.12 1068.2 919.43 952.96 852.9 950.06 854.59 1065.29 921.12"/><polygon class="cls-9" points="966.11 945.93 969.43 944 969.42 873.59 966.09 875.53 966.11 945.93"/><polygon class="cls-11" points="1060.79 1000.59 1062.27 997.6 969.43 944 966.11 945.93 1060.79 1000.59"/><polygon class="cls-11" points="1060.27 924.12 1063.6 922.18 964.4 864.91 961.07 866.85 1060.27 924.12"/><path class="cls-10" d="M1062.45,1007.34l-101.4-58.55,0-81.94,101.4,58.54Zm-96.34-61.41,95.83,55.33v-70.4l-95.84-55.33,0,70.4Z"/><polygon class="cls-9" points="970.64 1027.11 973.97 1025.17 973.96 952.4 970.62 954.34 970.64 1027.11"/><polygon class="cls-11" points="1066.7 1082.57 1067.6 1079.23 973.97 1025.17 970.64 1027.11 1066.7 1082.57"/><polygon class="cls-11" points="1068.65 1008.01 1068.13 1001 968.93 943.72 965.6 945.66 1068.65 1008.01"/><path class="cls-10" d="M1069.28,1089.84,965.58,1030l0-84.31,103.7,59.87Zm-98.64-62.73,93.63,54.06V1008.4l-93.64-54.06,0,72.77Z"/><path class="cls-10" d="M1065.28,1105.68,950,1039.14l0-184.55,115.23,66.53Zm-107.11-70.22,103.5,59.75,0-167.81-103.5-59.75,0,167.81Z"/><polygon class="cls-9" points="1065.18 1097.82 1075.68 1091.75 1075.67 925.65 1065.65 925.15 1065.18 1097.82"/><path class="cls-11" d="M1173,1162l5.09-11.09-102.41-59.12-10.57,6.11a1,1,0,0,0,0,1.81Z"/><polygon class="cls-9" points="1074.53 1008.53 1077.86 1006.59 1077.84 936.19 1074.51 938.13 1074.53 1008.53"/><polygon class="cls-11" points="1169.21 1063.19 1170.7 1060.19 1077.86 1006.59 1074.53 1008.53 1169.21 1063.19"/><polygon class="cls-11" points="1168.69 986.72 1172.02 984.78 1072.82 927.51 1069.49 929.44 1168.69 986.72"/><path class="cls-10" d="M1170.87,1069.93l-101.4-58.54,0-81.95L1170.89,988Zm-96.34-61.4,95.83,55.33v-70.4l-95.84-55.33,0,70.4Z"/><polygon class="cls-9" points="1079.06 1089.7 1082.39 1087.77 1082.38 1015 1079.05 1016.94 1079.06 1089.7"/><polygon class="cls-11" points="1175.13 1145.17 1176.03 1141.83 1082.39 1087.77 1079.06 1089.7 1175.13 1145.17"/><polygon class="cls-11" points="1177.08 1070.61 1176.55 1063.59 1077.36 1006.32 1074.03 1008.26 1177.08 1070.61"/><path class="cls-10" d="M1177.7,1152.44,1074,1092.57v-84.31l103.7,59.87Zm-98.64-62.74,93.64,54.07,0-72.77-93.63-54.06v72.76Z"/><polygon class="cls-9" points="1178.13 1170.83 1181.03 1169.14 1181.05 984.59 1178.15 986.28 1178.13 1170.83"/><polygon class="cls-11" points="1178.15 986.28 1181.05 984.59 1066.63 918.53 1063.73 920.22 1178.15 986.28"/><path class="cls-10" d="M1178.13,1170.83l-114.42-66.06,0-184.55,114.42,66.06ZM1066.52,1098l103.5,59.76V990L1066.5,930.2l0,167.81Z"/><polygon class="cls-8" points="775.59 759.76 780.73 921.45 570.28 801.74 570.28 641.23 775.59 759.76"/><g id="Axonometric_Cube-4" data-name="Axonometric Cube"><polygon id="Cube_face_-_left-5" data-name="Cube face - left" class="cls-9" points="787.34 967.25 790.25 965.58 790.25 943.52 787.34 945.2 787.34 967.25"/><polygon id="Cube_face_-_right-4" data-name="Cube face - right" class="cls-10" points="552 831.38 787.34 967.25 787.34 945.2 552 809.33 552 831.38"/><polygon id="Cube_face_-_top-5" data-name="Cube face - top" class="cls-11" points="787.34 945.2 790.25 943.52 554.9 807.65 552 809.33 787.34 945.2"/></g><polygon class="cls-9" points="559.89 807.98 572.03 800.96 572.02 634.87 557.8 633.03 559.89 807.98"/><polygon class="cls-11" points="668.83 870.88 667.88 856.3 572.03 800.96 559.89 807.98 668.83 870.88"/><polygon class="cls-9" points="669.98 877.45 672.88 875.76 672.9 691.21 669.99 692.89 669.98 877.45"/><polygon class="cls-11" points="669.99 692.89 672.9 691.21 557.66 624.68 554.76 626.37 669.99 692.89"/><polygon class="cls-9" points="570.8 717.7 574.13 715.77 574.12 645.37 570.79 647.3 570.8 717.7"/><polygon class="cls-11" points="665.48 772.37 666.97 769.37 574.13 715.77 570.8 717.7 665.48 772.37"/><polygon class="cls-11" points="664.97 695.89 668.29 693.96 569.1 636.68 565.77 638.62 664.97 695.89"/><path class="cls-10" d="M667.15,779.11l-101.4-58.54,0-82,101.4,58.54ZM570.8,717.7,666.64,773v-70.4L570.79,647.3v70.4Z"/><polygon class="cls-9" points="575.34 798.88 578.67 796.94 578.65 724.18 575.32 726.11 575.34 798.88"/><polygon class="cls-11" points="671.4 854.34 672.3 851 578.67 796.94 575.34 798.88 671.4 854.34"/><polygon class="cls-11" points="673.35 779.78 672.83 772.77 573.63 715.5 570.3 717.43 673.35 779.78"/><path class="cls-10" d="M674,861.61l-103.7-59.87,0-84.31L674,777.3Zm-98.64-62.73L669,852.94V780.17l-93.64-54.06,0,72.77Z"/><path class="cls-10" d="M670,877.45,554.74,810.92l0-184.56L670,692.9ZM562.87,807.23,666.37,867l0-167.81-103.5-59.76,0,167.81Z"/><polygon class="cls-9" points="669.88 869.59 680.38 863.52 680.37 697.43 670.35 696.92 669.88 869.59"/><path class="cls-11" d="M777.7,933.73l5.09-11.09L680.38,863.52l-10.57,6.12a1,1,0,0,0,0,1.8Z"/><polygon class="cls-9" points="679.23 780.3 682.56 778.37 682.54 707.96 679.21 709.9 679.23 780.3"/><polygon class="cls-11" points="773.91 834.97 775.4 831.97 682.56 778.37 679.23 780.3 773.91 834.97"/><polygon class="cls-11" points="773.39 758.49 776.72 756.55 677.52 699.28 674.19 701.22 773.39 758.49"/><path class="cls-10" d="M775.57,841.71l-101.4-58.55,0-81.94,101.4,58.54ZM679.23,780.3l95.83,55.33v-70.4L679.21,709.9l0,70.4Z"/><polygon class="cls-9" points="683.76 861.48 687.09 859.54 687.08 786.78 683.75 788.71 683.76 861.48"/><polygon class="cls-11" points="779.83 916.94 780.73 913.6 687.09 859.54 683.76 861.48 779.83 916.94"/><polygon class="cls-11" points="781.78 842.38 781.25 835.37 682.05 778.1 678.72 780.03 781.78 842.38"/><path class="cls-10" d="M782.4,924.21,678.71,864.34V780l103.7,59.87Zm-98.64-62.73,93.64,54.06,0-72.77-93.63-54.06v72.77Z"/><polygon class="cls-9" points="782.83 942.61 785.73 940.92 785.75 756.36 782.85 758.05 782.83 942.61"/><polygon class="cls-11" points="782.85 758.05 785.75 756.36 671.33 690.31 668.43 691.99 782.85 758.05"/><path class="cls-10" d="M782.83,942.6,668.41,876.55l0-184.56,114.42,66.06ZM671.22,869.79l103.5,59.75V761.73L671.2,702l0,167.81Z"/><polygon class="cls-8" points="2311.39 482.6 2306.25 644.3 2516.69 524.59 2516.69 364.07 2311.39 482.6"/><g id="Axonometric_Cube-5" data-name="Axonometric Cube"><polygon id="Cube_face_-_left-6" data-name="Cube face - left" class="cls-12" points="2299.63 690.1 2296.73 688.42 2296.73 666.37 2299.63 668.04 2299.63 690.1"/><polygon id="Cube_face_-_right-5" data-name="Cube face - right" class="cls-11" points="2534.97 554.22 2299.63 690.1 2299.63 668.04 2534.97 532.17 2534.97 554.22"/><polygon id="Cube_face_-_top-6" data-name="Cube face - top" class="cls-5" points="2299.63 668.04 2296.73 666.37 2532.07 530.49 2534.97 532.17 2299.63 668.04"/></g><polygon class="cls-12" points="2527.08 530.83 2514.94 523.81 2514.96 357.72 2529.17 355.88 2527.08 530.83"/><polygon class="cls-5" points="2418.14 593.72 2419.09 579.15 2514.94 523.81 2527.08 530.83 2418.14 593.72"/><polygon class="cls-12" points="2417 600.29 2414.09 598.61 2414.08 414.05 2416.98 415.74 2417 600.29"/><polygon class="cls-5" points="2416.98 415.74 2414.08 414.05 2529.31 347.52 2532.22 349.21 2416.98 415.74"/><polygon class="cls-12" points="2516.17 440.55 2512.84 438.61 2512.85 368.21 2516.18 370.14 2516.17 440.55"/><polygon class="cls-5" points="2421.49 495.21 2420 492.21 2512.84 438.61 2516.17 440.55 2421.49 495.21"/><polygon class="cls-5" points="2422.01 418.74 2418.68 416.8 2517.88 359.53 2521.2 361.46 2422.01 418.74"/><path class="cls-11" d="M2419.81,420l101.4-58.55v82L2419.83,502Zm96.36,20.54v-70.4l-95.83,55.33,0,70.4,95.84-55.33Z"/><polygon class="cls-12" points="2511.64 521.72 2508.31 519.79 2508.32 447.02 2511.65 448.96 2511.64 521.72"/><polygon class="cls-5" points="2415.57 577.19 2414.67 573.85 2508.31 519.79 2511.64 521.72 2415.57 577.19"/><polygon class="cls-5" points="2413.62 502.63 2414.15 495.61 2513.34 438.34 2516.67 440.28 2413.62 502.63"/><path class="cls-11" d="M2413,500.15l103.7-59.87,0,84.31L2413,584.46Zm98.67,21.57V449L2418,503v72.76l93.64-54.06Z"/><path class="cls-11" d="M2417,415.74l115.24-66.53V533.76L2417,600.29Zm107.13,114.33V362.26L2420.62,422l0,167.81,103.51-59.76Z"/><polygon class="cls-12" points="2417.09 592.44 2406.59 586.36 2406.61 420.27 2416.63 419.77 2417.09 592.44"/><path class="cls-5" d="M2309.28,656.57l-5.1-11.08,102.41-59.13,10.58,6.12a1,1,0,0,1,0,1.8Z"/><polygon class="cls-12" points="2407.75 503.15 2404.42 501.21 2404.43 430.81 2407.76 432.74 2407.75 503.15"/><polygon class="cls-5" points="2313.07 557.81 2311.58 554.81 2404.42 501.21 2407.75 503.15 2313.07 557.81"/><polygon class="cls-5" points="2313.59 481.33 2310.26 479.4 2409.45 422.13 2412.78 424.06 2313.59 481.33"/><path class="cls-11" d="M2311.39,482.6l101.39-58.54,0,81.95-101.4,58.54Zm96.36,20.55V432.74l-95.84,55.33v70.41l95.84-55.33Z"/><polygon class="cls-12" points="2403.21 584.32 2399.88 582.39 2399.9 509.62 2403.23 511.56 2403.21 584.32"/><polygon class="cls-5" points="2307.15 639.79 2306.25 636.45 2399.88 582.39 2403.21 584.32 2307.15 639.79"/><polygon class="cls-5" points="2305.2 565.23 2305.72 558.21 2404.92 500.94 2408.25 502.88 2305.2 565.23"/><path class="cls-11" d="M2304.55,562.74l103.7-59.87,0,84.32-103.7,59.87Zm98.66,21.58,0-72.76-93.64,54.06v72.76l93.63-54.06Z"/><polygon class="cls-12" points="2304.14 665.45 2301.24 663.76 2301.22 479.21 2304.13 480.9 2304.14 665.45"/><polygon class="cls-5" points="2304.13 480.9 2301.22 479.21 2415.64 413.15 2418.54 414.84 2304.13 480.9"/><path class="cls-11" d="M2304.13,480.9l114.41-66.06,0,184.55-114.42,66.06Zm111.62,111.73,0-167.81-103.5,59.76,0,167.81,103.5-59.76Z"/><polygon id="Cube_face_-_left-7" data-name="Cube face - left" class="cls-6" points="1478.26 1520.59 1259.54 1394.32 1259.54 929.06 1478.26 1055.33 1478.26 1520.59"/><g class="cls-13"><polygon class="cls-5" points="376.35 397.73 2020.86 -556.1 2478.68 -711.94 834.18 241.88 376.35 397.73"/><polygon class="cls-5" points="1289.63 925.01 2934.13 -28.82 2934.05 -0.07 1289.54 953.75 1289.63 925.01"/><polygon class="cls-8" points="834.18 241.88 2478.68 -711.94 2934.13 -28.82 2142.21 431.89 1699.29 744.52 1289.63 925.01 834.18 241.88"/><polygon class="cls-5" points="834.18 241.88 376.35 397.73 376.39 426.54 398.02 439.03 398.02 410.67 826.39 264.86 1254.27 906.62 1254.27 933.38 1289.54 953.75 1289.63 925.01 834.18 241.88"/></g><path class="cls-14" d="M1724.8,133.9S1597.25-7.55,1596.24-9.06s-193.73-89.7-193.73-89.7l-84.66,48.88c-47.32-21.78-93.63-31.57-93.63-31.57L790.51,169l176.8-4.52L1345.19,349l40-10.72,188.27,92.52,38.8-75.28,139.5,69.38Z"/><polygon id="Cube_face_-_right-6" data-name="Cube face - right" class="cls-7" points="2368.16 -27.99 1573.49 430.81 1573.49 221.73 2368.16 -237.07 2368.16 -27.99"/><polygon class="cls-6" points="1568.16 216.55 1568.16 205.55 1263.07 -252.04 957.63 -148.07 957.63 -127.85 977.5 -120.67 977.5 86.72 1275.63 -14.69 1573.49 430.81 1573.49 221.73 1568.16 216.55"/><g class="cls-13"><polygon class="cls-5" points="1573.49 230.14 2415.2 -258.94 2415.15 -238.44 1573.44 250.63 1573.49 230.14"/><polygon class="cls-8" points="1248.75 -256.95 2090.46 -746.02 2415.2 -258.94 1573.49 230.14 1248.75 -256.95"/><polygon class="cls-5" points="1248.75 -256.95 922.3 -145.83 922.33 -125.28 937.76 -116.38 937.76 -136.6 1243.2 -240.57 1548.29 217.03 1548.29 236.11 1573.44 250.63 1573.49 230.14 1248.75 -256.95"/></g><g id="Axonometric_Cube-6" data-name="Axonometric Cube"><polygon id="Cube_face_-_left-8" data-name="Cube face - left" class="cls-7" points="1751.79 424.91 2347.78 80.81 2347.78 -145.3 1751.79 198.79 1751.79 424.91"/><polygon id="Cube_face_-_right-7" data-name="Cube face - right" class="cls-6" points="1704.41 355.51 1751.79 424.91 1751.79 198.79 1704.41 167.5 1704.41 355.51"/></g><polygon class="cls-7" points="2062.21 -274.98 2367.65 -171.01 2367.65 -150.79 1757.12 201.7 1757.12 182.61 2062.21 -274.98"/><g class="cls-13"><polygon class="cls-5" points="1751.79 207.2 1684.83 165.43 1684.89 185.93 1751.84 227.69 1751.79 207.2"/><polygon class="cls-5" points="2076.53 -279.89 1718.79 -489.54 1684.83 165.43 1751.79 207.2 2076.53 -279.89"/><polygon class="cls-5" points="2076.53 -279.89 2402.98 -168.77 2402.95 -148.22 2387.53 -139.32 2387.52 -159.54 2082.08 -263.51 1777 194.09 1777 213.17 1751.84 227.69 1751.79 207.2 2076.53 -279.89"/></g><polygon class="cls-6" points="2055.11 813.63 1992.24 1007.23 2180.42 1115.88 2191.5 755.3 2055.11 813.63"/><polygon class="cls-6" points="1549.83 1118.69 1549.83 1458.32 2161.85 1104.96 2161.85 765.34 1549.83 1118.69"/><path class="cls-8" d="M2137,850.38l-118.53,68.44V861.38L2137,792.94Zm-144.31,25.88L1874.18,944.7v57.43l118.53-68.43Zm-144.3,83.32L1729.87,1028v57.44L1848.41,1017Zm-144.31,83.31-118.53,68.44v57.44l118.53-68.44Z"/><polygon class="cls-5" points="1843.94 1251.41 1848.41 1253.99 1848.41 1202.47 1843.94 1205.05 1843.94 1251.41"/><polygon class="cls-5" points="1843.94 1171.99 1848.41 1174.57 1848.41 1123.05 1843.94 1125.63 1843.94 1171.99"/><polygon class="cls-5" points="1699.63 1175.88 1704.1 1178.46 1704.1 1126.94 1699.63 1129.52 1699.63 1175.88"/><polygon class="cls-5" points="1699.63 1255.31 1704.1 1257.88 1704.1 1206.36 1699.63 1208.94 1699.63 1255.31"/><polygon class="cls-5" points="1843.94 1092.57 1848.41 1095.15 1848.41 1043.63 1843.94 1046.21 1843.94 1092.57"/><polygon class="cls-5" points="1699.63 1334.73 1704.1 1337.31 1704.1 1285.79 1699.63 1288.37 1699.63 1334.73"/><polygon class="cls-5" points="1988.24 1009.25 1992.71 1011.83 1992.71 960.31 1988.24 962.89 1988.24 1009.25"/><polygon class="cls-5" points="2132.55 1005.36 2137.02 1007.94 2137.02 956.42 2132.55 959 2132.55 1005.36"/><polygon class="cls-5" points="2132.55 1084.78 2137.02 1087.36 2137.02 1035.84 2132.55 1038.42 2132.55 1084.78"/><polygon class="cls-5" points="1988.24 1088.67 1992.71 1091.26 1992.71 1039.73 1988.24 1042.31 1988.24 1088.67"/><polygon class="cls-5" points="2132.55 879.57 2132.55 925.94 2137.02 928.52 2137.02 876.99 2132.55 879.57"/><polygon class="cls-5" points="1988.24 1168.1 1992.71 1170.68 1992.71 1119.15 1988.24 1121.73 1988.24 1168.1"/><g class="cls-15"><polygon class="cls-5" points="1729.87 1158.42 1729.87 1163.58 1848.41 1095.15 1843.94 1092.57 1729.87 1158.42"/><polygon class="cls-5" points="1585.57 1241.74 1585.57 1246.9 1704.1 1178.46 1699.63 1175.88 1585.57 1241.74"/><polygon class="cls-5" points="1874.18 1075.11 1874.18 1080.27 1992.71 1011.83 1988.24 1009.25 1874.18 1075.11"/><polygon class="cls-5" points="2132.55 925.94 2018.48 991.79 2018.48 996.95 2137.02 928.52 2132.55 925.94"/><polygon class="cls-5" points="1729.87 1237.85 1729.87 1243.01 1848.41 1174.57 1843.94 1171.99 1729.87 1237.85"/><polygon class="cls-5" points="1585.57 1321.16 1585.57 1326.32 1704.1 1257.88 1699.63 1255.31 1585.57 1321.16"/><polygon class="cls-5" points="1874.18 1154.53 1874.18 1159.69 1992.71 1091.26 1988.24 1088.67 1874.18 1154.53"/><polygon class="cls-5" points="2018.48 1071.21 2018.48 1076.38 2137.02 1007.94 2132.55 1005.36 2018.48 1071.21"/><polygon class="cls-5" points="1729.87 1317.27 1729.87 1322.43 1848.41 1253.99 1843.94 1251.41 1729.87 1317.27"/><polygon class="cls-5" points="1585.57 1400.58 1585.57 1405.74 1704.1 1337.31 1699.63 1334.73 1585.57 1400.58"/><polygon class="cls-5" points="1874.18 1233.95 1874.18 1239.11 1992.71 1170.68 1988.24 1168.1 1874.18 1233.95"/><polygon class="cls-5" points="2018.48 1150.64 2018.48 1155.8 2137.02 1087.36 2132.55 1084.78 2018.48 1150.64"/></g><polygon id="Cube_face_-_right-8" data-name="Cube face - right" class="cls-7" points="2246.69 1076.94 2180.32 1115.26 2180.91 756.72 1554.48 1119.4 1554.31 1476.68 1478.26 1520.59 1478.26 1055.33 2246.69 611.68 2246.69 1076.94"/><polygon class="cls-8" points="1841.37 145.4 1836.23 307.1 1939.34 249.36 1939.34 88.84 1841.37 145.4"/><g id="Axonometric_Cube-7" data-name="Axonometric Cube"><polygon id="Cube_face_-_left-9" data-name="Cube face - left" class="cls-12" points="1829.61 352.9 1826.71 351.22 1826.71 329.17 1829.61 330.84 1829.61 352.9"/><polygon id="Cube_face_-_right-9" data-name="Cube face - right" class="cls-11" points="1957.62 278.99 1829.61 352.9 1829.61 330.84 1957.62 256.94 1957.62 278.99"/><polygon id="Cube_face_-_top-7" data-name="Cube face - top" class="cls-5" points="1829.61 330.84 1826.71 329.17 1954.71 255.26 1957.62 256.94 1829.61 330.84"/></g><polygon class="cls-12" points="1949.72 255.59 1937.59 248.57 1937.6 82.48 1951.81 80.65 1949.72 255.59"/><polygon class="cls-5" points="1840.79 318.49 1841.73 303.92 1937.59 248.57 1949.72 255.59 1840.79 318.49"/><polygon class="cls-5" points="1839.62 140.51 1836.72 138.82 1951.95 72.29 1954.86 73.98 1839.62 140.51"/><polygon class="cls-12" points="1938.81 165.32 1935.48 163.38 1935.5 92.98 1938.83 94.91 1938.81 165.32"/><polygon class="cls-5" points="1844.13 219.98 1842.64 216.98 1935.48 163.38 1938.81 165.32 1844.13 219.98"/><polygon class="cls-5" points="1844.65 143.5 1841.32 141.57 1940.52 84.3 1943.85 86.23 1844.65 143.5"/><path class="cls-11" d="M1842.45,144.77l101.4-58.54,0,82-101.4,58.54Zm96.36,20.55,0-70.41L1843,150.25v70.4l95.83-55.33Z"/><polygon class="cls-12" points="1934.28 246.49 1930.95 244.56 1930.96 171.79 1934.29 173.73 1934.28 246.49"/><polygon class="cls-5" points="1838.21 301.96 1837.31 298.62 1930.95 244.56 1934.28 246.49 1838.21 301.96"/><polygon class="cls-5" points="1836.26 227.4 1836.79 220.38 1935.98 163.11 1939.32 165.05 1836.26 227.4"/><path class="cls-11" d="M1835.62,224.92l103.7-59.87,0,84.31-103.7,59.87Zm98.66,21.57V173.73l-93.63,54.06,0,72.76,93.64-54.06Z"/><path class="cls-11" d="M1839.62,140.51,1954.86,74l0,184.55-115.24,66.53Zm107.13,114.33V87l-103.5,59.76V314.6l103.5-59.76Z"/><polygon class="cls-12" points="1834.12 328.25 1831.22 326.56 1831.2 142.01 1834.11 143.69 1834.12 328.25"/><polygon class="cls-5" points="1834.11 143.69 1831.2 142.01 1838.28 137.92 1841.19 139.61 1834.11 143.69"/><path class="cls-11" d="M1834.11,143.69l7.08-4.08V324.16l-7.08,4.09Z"/><polygon class="cls-8" points="2047.04 25.09 2041.9 186.78 2252.35 67.07 2252.35 -93.45 2047.04 25.09"/><g id="Axonometric_Cube-8" data-name="Axonometric Cube"><polygon id="Cube_face_-_left-10" data-name="Cube face - left" class="cls-12" points="2035.29 232.58 2032.38 230.91 2032.38 208.85 2035.29 210.53 2035.29 232.58"/><polygon id="Cube_face_-_right-10" data-name="Cube face - right" class="cls-11" points="2270.63 96.71 2035.29 232.58 2035.29 210.53 2270.63 74.66 2270.63 96.71"/><polygon id="Cube_face_-_top-8" data-name="Cube face - top" class="cls-5" points="2035.29 210.53 2032.38 208.85 2267.72 72.98 2270.63 74.66 2035.29 210.53"/></g><polygon class="cls-12" points="2262.74 73.31 2250.6 66.29 2250.61 -99.8 2264.82 -101.64 2262.74 73.31"/><polygon class="cls-5" points="2153.8 136.21 2154.74 121.63 2250.6 66.29 2262.74 73.31 2153.8 136.21"/><polygon class="cls-12" points="2152.65 142.78 2149.75 141.09 2149.73 -43.46 2152.64 -41.77 2152.65 142.78"/><polygon class="cls-5" points="2157.14 37.7 2155.66 34.7 2248.49 -18.9 2251.82 -16.97 2157.14 37.7"/><path class="cls-11" d="M2155.46-37.51,2256.86-96l0,82-101.4,58.54ZM2251.82-17l0-70.4L2156-32v70.4L2251.82-17Z"/><polygon class="cls-12" points="2247.29 64.21 2243.96 62.27 2243.97 -10.49 2247.31 -8.56 2247.29 64.21"/><polygon class="cls-5" points="2151.22 119.67 2150.33 116.33 2243.96 62.27 2247.29 64.21 2151.22 119.67"/><polygon class="cls-5" points="2149.28 45.11 2149.8 38.1 2249 -19.17 2252.33 -17.24 2149.28 45.11"/><path class="cls-11" d="M2148.63,42.63l103.7-59.87,0,84.31-103.7,59.87Zm98.66,21.58,0-72.77L2153.67,45.5v72.77l93.63-54.06Z"/><path class="cls-11" d="M2152.64-41.77l115.23-66.54,0,184.56-115.24,66.53ZM2259.76,72.56l0-167.81-103.5,59.76,0,167.81,103.5-59.76Z"/><polygon class="cls-12" points="2152.75 134.92 2142.24 128.85 2142.26 -37.24 2152.28 -37.75 2152.75 134.92"/><path class="cls-5" d="M2044.93,199.06,2039.84,188l102.4-59.12,10.58,6.11a1,1,0,0,1,0,1.81Z"/><polygon class="cls-12" points="2143.4 45.63 2140.07 43.7 2140.09 -26.71 2143.42 -24.77 2143.4 45.63"/><polygon class="cls-5" points="2048.72 100.3 2047.23 97.3 2140.07 43.7 2143.4 45.63 2048.72 100.3"/><polygon class="cls-5" points="2049.24 23.82 2045.91 21.88 2145.11 -35.39 2148.44 -33.45 2049.24 23.82"/><path class="cls-11" d="M2047,25.09l101.4-58.54,0,81.94L2047.06,107Zm96.36,20.54,0-70.4-95.84,55.33V101l95.83-55.33Z"/><polygon class="cls-12" points="2138.87 126.81 2135.54 124.87 2135.55 52.11 2138.88 54.04 2138.87 126.81"/><polygon class="cls-5" points="2042.8 182.27 2041.9 178.93 2135.54 124.87 2138.87 126.81 2042.8 182.27"/><polygon class="cls-5" points="2040.85 107.71 2041.38 100.7 2140.57 43.42 2143.91 45.36 2040.85 107.71"/><path class="cls-11" d="M2040.21,105.23l103.7-59.87v84.31l-103.69,59.87Zm98.66,21.58V54l-93.63,54.06,0,72.77,93.64-54.06Z"/><polygon class="cls-12" points="2039.8 207.94 2036.9 206.25 2036.88 21.69 2039.78 23.38 2039.8 207.94"/><polygon class="cls-5" points="2039.78 23.38 2036.88 21.69 2151.3 -44.37 2154.2 -42.68 2039.78 23.38"/><path class="cls-11" d="M2039.78,23.38,2154.2-42.68l0,184.56L2039.8,207.93Zm111.63,111.74V-32.69l-103.5,59.75V194.87l103.5-59.75Z"/><polygon class="cls-8" points="1289.55 924.7 2142.43 431.51 2363.14 647.77 1510.25 1140.96 1289.55 924.7"/><polygon class="cls-5" points="1510.25 1140.96 2363.14 647.77 2363.05 676.77 1510.17 1169.96 1510.25 1140.96"/><polygon class="cls-5" points="1289.55 924.7 1510.25 1140.96 1510.17 1169.96 1289.46 953.7 1289.55 924.7"/><polygon class="cls-5" points="3837.03 -6.9 5615.26 1032 6395.7 583.83 4602.81 -448.01 3837.03 -6.9"/><polygon id="Cube_face_-_left-11" data-name="Cube face - left" class="cls-6" points="3993.08 84.08 3774.37 -42.2 3774.37 -507.45 3993.08 -381.18 3993.08 84.08"/><polygon class="cls-6" points="4064.65 -317.82 4064.65 21.8 4676.68 -331.55 4676.68 -671.17 4064.65 -317.82"/><polygon id="Cube_face_-_right-11" data-name="Cube face - right" class="cls-7" points="4761.51 -359.57 4695.15 -321.26 4695.74 -679.79 4069.31 -317.11 4069.14 40.17 3993.08 84.08 3993.08 -381.18 4761.51 -824.83 4761.51 -359.57"/><g class="cls-13"><polygon class="cls-16" points="4083.31 121.92 4083.03 219.73 3985.58 276.36 3985.86 178.55 4083.31 121.92"/><polygon class="cls-17" points="3985.86 178.55 3985.58 276.36 3887.48 219.72 3887.76 121.91 3985.86 178.55"/><polygon class="cls-18" points="4083.31 121.92 3985.86 178.55 3887.76 121.91 3985.21 65.28 4083.31 121.92"/></g><g class="cls-13"><polygon class="cls-16" points="4205.15 191.71 4204.87 289.51 4107.41 346.15 4107.69 248.34 4205.15 191.71"/><polygon class="cls-17" points="4107.69 248.34 4107.41 346.15 4009.32 289.51 4009.6 191.7 4107.69 248.34"/><polygon class="cls-18" points="4205.15 191.71 4107.69 248.34 4009.6 191.7 4107.05 135.07 4205.15 191.71"/></g><g class="cls-13"><polygon class="cls-16" points="4326.98 261.5 4326.7 359.3 4229.25 415.94 4229.53 318.13 4326.98 261.5"/><polygon class="cls-17" points="4229.53 318.13 4229.25 415.94 4131.15 359.3 4131.43 261.49 4229.53 318.13"/><polygon class="cls-18" points="4326.98 261.5 4229.53 318.13 4131.43 261.49 4228.88 204.86 4326.98 261.5"/></g><g class="cls-13"><polygon class="cls-19" points="4448.82 331.28 4448.54 429.09 4351.09 485.73 4351.36 387.92 4448.82 331.28"/><polygon class="cls-17" points="4351.36 387.92 4351.09 485.73 4252.99 429.09 4253.27 331.28 4351.36 387.92"/><polygon class="cls-18" points="4448.82 331.28 4351.36 387.92 4253.27 331.28 4350.72 274.65 4448.82 331.28"/></g><g class="cls-13"><polygon class="cls-16" points="1567.89 1475.25 1567.62 1573.06 1470.16 1629.69 1470.44 1531.88 1567.89 1475.25"/><polygon class="cls-17" points="1470.44 1531.88 1470.16 1629.69 1372.07 1573.06 1372.35 1475.25 1470.44 1531.88"/><polygon class="cls-18" points="1567.89 1475.25 1470.44 1531.88 1372.35 1475.25 1469.8 1418.62 1567.89 1475.25"/></g><g class="cls-13"><polygon class="cls-16" points="1689.73 1545.04 1689.45 1642.85 1592 1699.48 1592.28 1601.67 1689.73 1545.04"/><polygon class="cls-17" points="1592.28 1601.67 1592 1699.48 1493.9 1642.85 1494.18 1545.04 1592.28 1601.67"/><polygon class="cls-18" points="1689.73 1545.04 1592.28 1601.67 1494.18 1545.04 1591.63 1488.4 1689.73 1545.04"/></g><g class="cls-13"><polygon class="cls-16" points="1811.57 1614.83 1811.29 1712.64 1713.84 1769.27 1714.11 1671.46 1811.57 1614.83"/><polygon class="cls-17" points="1714.11 1671.46 1713.84 1769.27 1615.74 1712.64 1616.02 1614.83 1714.11 1671.46"/><polygon class="cls-18" points="1811.57 1614.83 1714.11 1671.46 1616.02 1614.83 1713.47 1558.19 1811.57 1614.83"/></g><g class="cls-13"><polygon class="cls-19" points="1933.4 1684.62 1933.12 1782.43 1835.67 1839.06 1835.95 1741.25 1933.4 1684.62"/><polygon class="cls-17" points="1835.95 1741.25 1835.67 1839.06 1737.57 1782.43 1737.85 1684.62 1835.95 1741.25"/><polygon class="cls-18" points="1933.4 1684.62 1835.95 1741.25 1737.85 1684.62 1835.3 1627.98 1933.4 1684.62"/></g><g class="cls-13"><polygon class="cls-20" points="4430.06 1164.97 4429.97 1338.26 4396.95 1357.45 4397.05 1184.15 4430.06 1164.97"/><polygon class="cls-5" points="4397.05 1184.15 4396.95 1357.45 4363.72 1338.26 4363.81 1164.97 4397.05 1184.15"/><polygon class="cls-20" points="4430.06 1164.97 4397.05 1184.15 4363.81 1164.97 4396.83 1145.78 4430.06 1164.97"/></g><g class="cls-13"><polygon class="cls-19" points="4533.92 739.84 4533.58 1181.92 4413.66 1251.61 4414 809.54 4533.92 739.84"/><polygon class="cls-16" points="4414 809.54 4413.66 1251.61 4292.94 1181.92 4293.28 739.84 4414 809.54"/><polygon class="cls-18" points="4533.92 739.84 4414 809.54 4293.28 739.84 4413.2 670.15 4533.92 739.84"/></g><g class="cls-13"><polygon class="cls-20" points="4231.34 1278.52 4231.25 1451.82 4198.23 1471 4198.32 1297.71 4231.34 1278.52"/><polygon class="cls-5" points="4198.32 1297.71 4198.23 1471 4164.99 1451.82 4165.09 1278.52 4198.32 1297.71"/><polygon class="cls-20" points="4231.34 1278.52 4198.32 1297.71 4165.09 1278.52 4198.11 1259.33 4231.34 1278.52"/></g><g class="cls-13"><polygon class="cls-19" points="4335.2 853.4 4334.86 1295.48 4214.93 1365.17 4215.27 923.09 4335.2 853.4"/><polygon class="cls-16" points="4215.27 923.09 4214.93 1365.17 4094.22 1295.47 4094.56 853.4 4215.27 923.09"/><polygon class="cls-18" points="4335.2 853.4 4215.27 923.09 4094.56 853.4 4214.48 783.7 4335.2 853.4"/></g><g class="cls-13"><polygon class="cls-20" points="4038.93 1395.23 4038.83 1568.53 4005.82 1587.71 4005.91 1414.42 4038.93 1395.23"/><polygon class="cls-5" points="4005.91 1414.42 4005.82 1587.71 3972.58 1568.53 3972.68 1395.23 4005.91 1414.42"/><polygon class="cls-20" points="4038.93 1395.23 4005.91 1414.42 3972.68 1395.23 4005.69 1376.04 4038.93 1395.23"/></g><g class="cls-13"><polygon class="cls-19" points="4142.79 970.11 4142.45 1412.19 4022.52 1481.88 4022.86 1039.8 4142.79 970.11"/><polygon class="cls-16" points="4022.86 1039.8 4022.52 1481.88 3901.8 1412.18 3902.14 970.11 4022.86 1039.8"/><polygon class="cls-18" points="4142.79 970.11 4022.86 1039.8 3902.14 970.11 4022.07 900.41 4142.79 970.11"/></g><g class="cls-13"><polygon class="cls-20" points="3846.51 1507.21 3846.42 1680.5 3813.4 1699.69 3813.5 1526.4 3846.51 1507.21"/><polygon class="cls-5" points="3813.5 1526.4 3813.4 1699.69 3780.17 1680.5 3780.26 1507.21 3813.5 1526.4"/><polygon class="cls-20" points="3846.51 1507.21 3813.5 1526.4 3780.26 1507.21 3813.28 1488.02 3846.51 1507.21"/></g><g class="cls-13"><polygon class="cls-19" points="3950.37 1082.09 3950.03 1524.16 3830.11 1593.86 3830.45 1151.78 3950.37 1082.09"/><polygon class="cls-16" points="3830.45 1151.78 3830.11 1593.86 3709.39 1524.16 3709.73 1082.08 3830.45 1151.78"/><polygon class="cls-18" points="3950.37 1082.09 3830.45 1151.78 3709.73 1082.08 3829.66 1012.39 3950.37 1082.09"/></g><g class="cls-13"><polygon class="cls-20" points="3015.79 -0.6 3015.7 172.69 2982.68 191.88 2982.77 18.58 3015.79 -0.6"/><polygon class="cls-5" points="2982.77 18.58 2982.68 191.88 2949.45 172.69 2949.54 -0.61 2982.77 18.58"/><polygon class="cls-20" points="3015.79 -0.6 2982.77 18.58 2949.54 -0.61 2982.55 -19.79 3015.79 -0.6"/></g><g class="cls-13"><polygon class="cls-19" points="3119.65 -425.73 3119.31 16.35 2999.38 86.04 2999.72 -356.04 3119.65 -425.73"/><polygon class="cls-16" points="2999.72 -356.04 2999.38 86.04 2878.67 16.34 2879.01 -425.73 2999.72 -356.04"/></g><g class="cls-13"><polygon class="cls-20" points="3608.8 163.42 3608.71 336.71 3575.69 355.9 3575.78 182.61 3608.8 163.42"/><polygon class="cls-5" points="3575.78 182.61 3575.69 355.9 3542.46 336.71 3542.55 163.42 3575.78 182.61"/><polygon class="cls-20" points="3608.8 163.42 3575.78 182.61 3542.55 163.42 3575.57 144.23 3608.8 163.42"/></g><g class="cls-13"><polygon class="cls-19" points="3712.66 -261.7 3712.32 180.37 3592.4 250.07 3592.74 -192.01 3712.66 -261.7"/><polygon class="cls-16" points="3592.74 -192.01 3592.4 250.07 3471.68 180.37 3472.02 -261.71 3592.74 -192.01"/></g><g class="cls-13"><polygon class="cls-20" points="3230.28 611.33 3230.19 784.63 3197.17 803.81 3197.27 630.52 3230.28 611.33"/><polygon class="cls-5" points="3197.27 630.52 3197.17 803.81 3163.94 784.63 3164.03 611.33 3197.27 630.52"/><polygon class="cls-20" points="3230.28 611.33 3197.27 630.52 3164.03 611.33 3197.05 592.14 3230.28 611.33"/></g><g class="cls-13"><polygon class="cls-19" points="3334.14 186.21 3333.8 628.29 3213.88 697.98 3214.22 255.9 3334.14 186.21"/><polygon class="cls-16" points="3214.22 255.9 3213.88 697.98 3093.16 628.28 3093.5 186.21 3214.22 255.9"/><polygon class="cls-18" points="3334.14 186.21 3214.22 255.9 3093.5 186.21 3213.43 116.51 3334.14 186.21"/></g><path class="cls-21" d="M3483.51,2214.36c-75.65,0-143.15,16.27-187.35,41.71q-8.58-.45-17.39-.45c-89.79,0-162.57,35.76-162.57,79.88s72.78,79.88,162.57,79.88a322.06,322.06,0,0,0,47-3.39c42.28,17.08,97.43,27.42,157.75,27.42,133.16,0,241.1-50.38,241.1-112.52S3616.67,2214.36,3483.51,2214.36Z"/><path class="cls-22" d="M3360,1875.78s9.14-8.44,12.56-7.25c25.92,9,40.93,83.12,34.63,106.32s-47.19,43.82-47.19,43.82-10.82-9.82-13.52-25.11,19.79-28.28,19.79-28.28h2.25l1.38-3.73.82-7.08S3349.63,1897.76,3360,1875.78Z"/><polygon class="cls-23" points="3382.2 1956.09 3370.4 1939.83 3359.19 1962.1 3371.04 1968 3382.2 1956.09"/><path class="cls-24" d="M3202.38,2001.63l-6.93-17.82-19.84-11.26s-5,2.5.24,7.08a92.77,92.77,0,0,1,9,9l-17.11-2.5-16.06-8.27s-5.2,5.53.75,15.25a98.72,98.72,0,0,0,12.17,16.07l29.63,8.46Z"/><path class="cls-7" d="M3346,2307.47s-1.25-2.9-3.31-6.66c-4.07-7.43-11.34-18.22-18.5-16.73-10.8,2.25-12.6,13.72-11.47,20.92s7.19,13,9.44,18.21,13,23.39,22.27,20.24,11.46-12.15,7.42-23.61S3346,2307.47,3346,2307.47Z"/><path class="cls-25" d="M3347.83,2295.33s-13-8.1-15.74-10.35-12.57-4.18-15.06,3-3.38,14.8,1.34,21.54,12,22.71,14.76,25,8.87,7.18,15.6,4.18c5.83-2.6,4.31-4.85,5.08-11.15S3347.83,2295.33,3347.83,2295.33Z"/><path class="cls-25" d="M3351.43,2020.54s9,22.94,9.44,44.52-.45,102.09,0,112,8.55,59.81,4.05,74.2-11.05,64.31-11.05,64.31-14.75,9.9-20.74,0-2.84-42.72-6.44-55.31-3.6-32.83-3.6-40.93v-17.54s-11.69-43.62-15.74-83.65S3302,2006.15,3351.43,2020.54Z"/><path class="cls-7" d="M3309.15,2333.62s6.25,20.74,0,24.74c-16.19,10.34-34.08-1.58-42.62.67s-33.38,2.93-38.78-2.47-10.63-14.69-6.58-23c2-4.17,26.82,2.79,32.22.09s27-8.64,27-8.64Z"/><path class="cls-25" d="M3309.15,2328.61s6.25,20.74,0,24.73c-16.19,10.35-34.08-1.57-42.62.68s-33.38,2.92-38.78-2.48-9.44-17.09-5.4-19.34,25.64-.9,31-3.59,27-8.65,27-8.65Z"/><path class="cls-26" d="M3337.13,2042.13s6.92,36.6-10.17,48.67c-9.27,6.55-25.45,96.14-25.45,106s14.84,47.68,13.49,70.16-2.54,64.77-2.54,64.77a23.29,23.29,0,0,1-24.45,3.14c-13.94-6.29-13.94-14.94-13.94-14.94s3.15-13.84,3.15-21-17.09-63.86-17.54-77.35-4.5-22.94-4.5-34.63-12.14-84.1-9.44-110.18,19.79-55.77,19.79-55.77l61.16,3.69Z"/><path class="cls-27" d="M3372.56,1868.53c12.08,12.51.42,60.58-4.08,79.47s-9.28,26.67-8.51,38.36,3.19,27.87,3.19,27.87,9.4,23.71-3.33,38.71c-4.68,5.52-29.51,39-54.26,35.66s-57-12.78-60.22-23.78a81.34,81.34,0,0,1-3.21-23.89c0-4.2,16.19-57.27,16.19-57.27s-12.43-57.55-3.6-73.75c7.28-13.34,25-26.42,33.61-31.4,2.24-1.3,26.36-1.87,32.38-3.68,4.67-1.4,5-10.25,5-10.25s30.84-5.31,36.45-2.07C3372.56,1868.53,3370.47,1866.36,3372.56,1868.53Z"/><path class="cls-24" d="M3324.44,1851l.9,16.48s-11,9.55-22.13,11.15-18.92,2.4-18.92,2.4v-27.33Z"/><path class="cls-27" d="M3282.17,1958s-18.75,54.53-25.19,60.64c-17.54,16.64-63.41,5.32-66.56,0s-6.74-15.67,6.75-22,30-3.23,30-3.23,10.42-76.37,27.51-86.71S3290.71,1914.85,3282.17,1958Z"/><path class="cls-7" d="M3328.65,1864.08s-3.05-7.06-4-6.4-3.19,6-11.7,8.33-27.29,2.9-29.64,6.27-5,11.37-5,11.37,34.57-3.05,41.09-9.57A122.49,122.49,0,0,0,3328.65,1864.08Z"/><path class="cls-28" d="M3262.83,1822.57s-1.94,8.53,4.26,5.39,9.61-4.67,10-6.86a26.62,26.62,0,0,1,3.16-8.58c1.59-2.45,1.59-3.32,1.59-3.32S3262.15,1816.91,3262.83,1822.57Z"/><path class="cls-29" d="M3275,1834.8c0-.67-3.68-13.67-2.92-17.54a40.88,40.88,0,0,0,.45-8.77s.66-18.57,18.44-22.9c15.29-3.73,29.46-2.51,42,15.7,10,14.47,4.25,30.29,3.15,33.51-2.83,8.26-7.42,18-10.8,19.34s-25.41,6.07-29.91,4.5-10.11-4.73-11.14-6.08S3275,1834.8,3275,1834.8Z"/><path class="cls-24" d="M3272.5,1808.49s-2.7,4.27-1.8,8.77a29.29,29.29,0,0,1,.81,7.65c.09,3.14-1.49,1.35.09,6.29a83.14,83.14,0,0,1,3.37,15.74c.23,3.6,9.22,9.7,11.47,10.7s9,1,9,1l-8.83-5.11s2.38-1,1.19-5.69-2.43-8.32-4.81-8.54-2.39,2.92-2.39,2.92-5.84-12.82-6.52-15.52S3272.5,1808.49,3272.5,1808.49Z"/><polygon class="cls-28" points="3282.97 1839.3 3262.83 1822.57 3262.83 1827.19 3280.59 1839.3 3282.97 1839.3"/><path class="cls-23" d="M3542.52,1917.36V1929a10.79,10.79,0,0,1-11.29,10.83,49.16,49.16,0,0,1-9.9-1.68c-8-2.15-13.28-13.7-13.28-13.7l9.15-10.82Z"/><path class="cls-23" d="M3521.15,1852.85c16.92-1.21,22.26,13.3,22.51,28.15s-1,30-1.37,43.66c0,0-29.46,2.6-29.73-8.05-.21-8,1-12.72-1.63-29.15C3508.55,1872.68,3505.77,1854,3521.15,1852.85Z"/><path class="cls-23" d="M3474.52,1816.84l30.81,13.69,13.38,29.68L3503.76,1878l-17.62,2.47h-21.08l-2.87-9.64s2-17.18-4.94-30.94c-1.35-1.92,0-9.18,0-9.18Z"/><path class="cls-23" d="M3438.19,1800.71c.38-2.84,3.42-11.82,8.38-18.36,1.79-1.31,7.64,2,7.64,2l14.11,21.48-2,27.49s-8.9,8.15-13.11,7.8c-7.22-.62-14-20.67-14.23-24.53s1.07-7.92.62-9.68S3437.84,1803.54,3438.19,1800.71Z"/><path class="cls-29" d="M3489.05,1770.51c26.78,8,24,30.34,24,30.34l1.77,30.94s-10.27,15.51-18.33,16.13c-29.87,2.28-34-12.6-34-12.6s.18-9.7-7.52-15.37c-4.14-3.07-9.36,1.53-9.36,1.53s-5.4-22.1,0-37C3446.84,1781.12,3456.36,1760.69,3489.05,1770.51Z"/><path class="cls-7" d="M3497.52,2230c7.36-2.14,9.2,2.25,20.41,2.92,4.46.22,24.27,14.25,25,16.23,1.12,6.17,5.56,16.23,3.47,20.23s-13.8,3.65-18.22-1c-16.28-17.2-19.64-12.59-35.93-23C3485.84,2240.35,3490.14,2232,3497.52,2230Z"/><path class="cls-7" d="M3461.59,2273c8.19-1.82,33.78,7.56,33.78,7.56s3.18,16.47-1.33,19.47c-8,5.32-51.06-4.56-61.78-9.9-11.07-5.54-8.88-15.5-4.91-19.19C3429.63,2268.76,3445.55,2275.47,3461.59,2273Z"/><path class="cls-25" d="M3532.83,2019.43c4.6,55.4-12.59,89-7.59,115.76,21.41,39.9,9.11,73.08,18.85,113.83-1.66,12.9-31.53,1.31-28.48-14.34,3.92-22.31-11.06-51.09-20-85.35-11.65-34.6-11.4-43.36-32.86-109C3463.12,2030.76,3529.1,2016.2,3532.83,2019.43Z"/><path class="cls-26" d="M3484.43,1989.94l34.1-15.52s14.3,29.65,14.3,47.14c0,26.31-42.69,38.33-42.69,38.33s-1.25,105.9-.3,112.44c20.27,40.26,5.67,67.68,5.53,108.22-17.83,9.2-33.78-7.56-33.78-7.56s14.72-39.54-4-100.66c-4.29-10.12-34.69-103.87-25.24-181C3454.06,1992.11,3484.43,1989.94,3484.43,1989.94Z"/><path class="cls-30" d="M3510.93,1962.1s6.18,8.86,7.6,12.32c-55.85,49.74-86.2,16.88-86.2,16.88l1.2-14Z"/><path class="cls-31" d="M3462.19,1870.87s12.28,5.74,30.72-.6,18.43-16,18.43-16l11.45,2.47s17.4-12.07,10.45,30.91c-3.78,23.33-22.31,74.43-22.31,74.43s-34,43.29-77.4,15.24c2.72-16.76,1.43-34.74-.56-40.33,0,0-16.53-14.45-13.81-28.27C3422.34,1892.53,3462.19,1870.87,3462.19,1870.87Z"/><path class="cls-31" d="M3508.58,1798.29c6,1.62,9.42,8.32,7.62,14.89s-8.14,10.64-14.14,9-9.41-8.33-7.61-14.92S3502.6,1796.65,3508.58,1798.29Z"/><path class="cls-29" d="M3505.33,1807.83c5.07-5.4,12.36-1.69,12.36-1.69s25.28,15.75,19.53,39.3-21.18,45.49-21.18,45.49-17.2-20.58-19.24-34.17,3.32-13.17,3.67-37.27C3500.51,1817.27,3500.28,1813.18,3505.33,1807.83Z"/><path class="cls-23" d="M3416.73,1938.23l-16,28.31-18.49-10.45s-9.24,0-11.16,11.91l16.6,17.88a22.58,22.58,0,0,0,37-5.74l14.5-30.8Z"/><path class="cls-23" d="M3421.89,1917.1c6-13.75,16.35-29.1,30.17-22.2,10.27,5.15,11.24,26.63,3.38,39.25s-21.61,28.37-26.11,36-33.89,5.66-28.64-3.6C3407.85,1953.91,3415.22,1932.34,3421.89,1917.1Z"/><path class="cls-32" d="M2828.76,1034.43a3.86,3.86,0,0,1,3.89,6.58,2.35,2.35,0,0,1-.25.19c-4.34,3.15-14,4.59-23.78,2.8-7.77-1.38-15.83-4.68-21.91-10.58-59.61-58.63-143.55-126-219.19-157.08a273.72,273.72,0,0,0-29.18-10.21q-5.49-1.54-10.87-2.77c-19.44-4.44-37.77-5.52-54.3-2.37-27.09,5.2-49.55,22.07-64.3,54.81-11.42,25.23-18.25,59.85-19.21,105.75-.12,5.77-.16,11.74-.08,17.88l-7.76-3.07q0-9.19.19-17.85c1.23-45.58,8.28-80.29,19.81-105.89,16-35.33,40.36-53.52,69.88-59.18,20-3.86,42.25-1.87,65.74,4.48q5.43,1.47,10.95,3.23c7.24,2.33,14.6,5,22,8.08,76.75,31.45,161.55,99.49,221.69,158.68,4.85,4.7,11.46,7.35,17.88,8.57,7.87,1.39,15.08.61,17.79-1.46a.24.24,0,0,0,.1-.06,1,1,0,0,1,.17-.12,2.56,2.56,0,0,1,.45-.27A1.15,1.15,0,0,1,2828.76,1034.43Z"/><path class="cls-33" d="M3660.15,1402.23l-205,118.41L2844,1167.33c-15.74-9.35-27.25-21.1-30.81-33l-23.75-79.78c-7.32-24.6,21.59-41.27,64.16-37l138.16,13.72A149.47,149.47,0,0,1,3049,1049Zm-826.46-338.61c-9.9-5.72-9.9-15,.12-20.79s26.15-5.79,36.05-.07,9.9,15.08-.06,20.8-26.15,5.84-36.11.06Z"/><path class="cls-34" d="M3652.05,1383l-200.56,115.78-604.1-349.22c-15.41-9.2-26.66-20.64-30.15-32.37L2794,1039.12c-7.16-24,21.12-40.31,62.77-36.22l135.15,13.42a147.18,147.18,0,0,1,56,17.39Zm-814.77-334.89c-9.69-5.6-9.69-14.74.12-20.4s25.57-5.66,35.26,0,9.69,14.68-.06,20.34-25.57,5.66-35.32.06Z"/><path class="cls-35" d="M2975,1111.49q-.54,6.26-8.7,11-10.12,5.89-24.12,5.4t-29.59-7.71l-15.15,8.81-9.35-5.4,14.73-8.56q-17.14-10.21-23.29-19.59l14.73-8.56a54.78,54.78,0,0,0,9.2,11,69.11,69.11,0,0,0,12.41,9.55l26.11-15.17-3.74-4.67q-7.12-9.21-6.32-15.82t9.8-11.84q9.63-5.6,23.4-4.85a75.25,75.25,0,0,1,28,7.45l11.73-6.82,9.35,5.4-11.52,6.69q13.77,8.52,21.32,18.94l-17.9,4.46a69.06,69.06,0,0,0-16.75-15.65L2964,1090.32l3.32,4.26Q2975.55,1105.25,2975,1111.49Zm-49.23,1q14.25,6,22.91,1c2.69-1.57,4-3.41,3.82-5.51s-1.64-4.93-4.46-8.44l-22.27,12.94m32.25-29.57,21.71-12.62a34.23,34.23,0,0,0-12-3,17.2,17.2,0,0,0-9.37,2c-2.65,1.54-4,3.31-4.13,5.29s1.16,4.74,3.78,8.26"/><path class="cls-35" d="M3233,1293.85l-.56,1.54q-16.33,5.59-45.78,12.29l-12.16-7q23.68-8.15,42.27-16.18Z"/><path class="cls-35" d="M3548.56,1390.71q-4.56,12.9-30.38,27.9-26.59,15.47-48.11,18t-39.23-7.68q-17.15-9.9-12.66-22.76t30.24-27.82q27-15.71,48.42-18.17t39,7.7Q3553.1,1377.82,3548.56,1390.71Zm-81.08,33q13.45-2.74,34.05-14.71t25.31-19.79q4.78-7.87-4.7-13.35t-22.81-2.73q-13.32,2.73-34.19,14.86t-25.49,19.82q-4.61,7.68,4.87,13.16t23,2.74"/><path class="cls-35" d="M3466.43,1343.29q-4.56,12.9-30.38,27.91-26.6,15.45-48.11,18t-39.22-7.69q-17.14-9.88-12.66-22.75t30.24-27.83q27-15.69,48.42-18.17t39,7.71Q3471,1330.4,3466.43,1343.29Zm-81.08,33q13.47-2.74,34.05-14.7t25.32-19.8q4.77-7.86-4.71-13.34t-22.81-2.74q-13.32,2.74-34.18,14.87t-25.49,19.81q-4.62,7.68,4.87,13.16t22.95,2.74"/><path class="cls-35" d="M3384.3,1295.88q-4.55,12.9-30.37,27.9-26.59,15.46-48.11,18t-39.22-7.68q-17.14-9.9-12.67-22.76t30.24-27.82q27-15.71,48.42-18.17t39,7.71Q3388.85,1283,3384.3,1295.88Zm-81.08,33q13.47-2.75,34.06-14.71t25.31-19.79q4.77-7.87-4.7-13.35t-22.81-2.73q-13.32,2.73-34.19,14.86T3275.41,1313q-4.62,7.68,4.87,13.16t22.94,2.74"/><path class="cls-35" d="M3263.75,1226.28q-4.56,12.9-30.37,27.9-26.6,15.46-48.11,18t-39.23-7.68q-17.14-9.9-12.66-22.76t30.23-27.82q27-15.71,48.43-18.17t39,7.7Q3268.3,1213.38,3263.75,1226.28Zm-81.08,33q13.47-2.74,34.06-14.71t25.3-19.79q4.78-7.87-4.69-13.35t-22.81-2.73q-13.32,2.73-34.19,14.86t-25.49,19.82q-4.62,7.68,4.87,13.16t23,2.74"/><path class="cls-35" d="M3181.62,1178.86q-4.54,12.9-30.37,27.91-26.6,15.45-48.11,18t-39.22-7.69q-17.15-9.9-12.66-22.75t30.23-27.83q27-15.71,48.42-18.17T3169,1156Q3186.17,1166,3181.62,1178.86Zm-81.08,33q13.47-2.73,34.06-14.7t25.31-19.8q4.78-7.86-4.7-13.34t-22.81-2.74q-13.32,2.74-34.19,14.86T3072.73,1196q-4.62,7.69,4.87,13.16t22.94,2.74"/><path class="cls-35" d="M3086.41,1108.53q14.34,8.28,15.54,17.58t-11.35,16.61a59.59,59.59,0,0,1-15.62,6.19,120.65,120.65,0,0,1-20.46,3q-11.76.85-35,.45l-35-.32-.7.4,48.75,28.15-14.45,8.4-69.62-40.2,12.43-7.22,52.94-.08q23.67-.16,32.48-.86a92.06,92.06,0,0,0,15-2.22,42.92,42.92,0,0,0,11.18-4.47q6.92-4,6.71-8.74t-7.58-9a52.92,52.92,0,0,0-13.57-5.34,123.12,123.12,0,0,0-20.58-2.81l1.91-11.44a131.54,131.54,0,0,1,26.83,3.69A82.12,82.12,0,0,1,3086.41,1108.53Z"/><path class="cls-36" d="M2384.75,1162.2a3.94,3.94,0,0,1-4.47,3.34A4,4,0,0,1,2377,1161c15-101.12,50.64-166.27,95.37-203.73a172.4,172.4,0,0,1,81.13-38.15c38.48-24.7,78.95-39.92,116.88-44.58,38.31-4.69,74.17,1.4,103,19.46,27.72,17.25,48.88,45.44,59.5,85.51,20.17,76.17-4,99.24-4.49,99.65a21.19,21.19,0,0,1-8,4.56,33.72,33.72,0,0,1-12.72,1.79c-4.72-.26-9.21-1.7-12.51-4.89a14.13,14.13,0,0,1-3.75-6c-18.72-55.08-62.49-101.68-114.94-127.8-31.77-15.85-66.75-24.13-101.17-22.22a165.48,165.48,0,0,0-18.87,2.09c-70,45.39-133.21,122.9-161.59,225.42a3.95,3.95,0,0,1-7.61-2.09c26.68-96.31,83.52-171,148.15-218.36a165.86,165.86,0,0,0-57.92,31.69c-43.34,36.27-77.94,99.8-92.63,198.86Zm187.72-245.35c.8,0,1.55-.1,2.35-.15,35.84-2,72.13,6.63,105.08,23,54.2,27,99.49,75.23,118.84,132.37a7.36,7.36,0,0,0,1.8,2.89c1.77,1.74,4.53,2.54,7.48,2.7a26.8,26.8,0,0,0,9.73-1.41,13.14,13.14,0,0,0,5-2.65h0l.09-.09h0c.75-.66,21.24-20.81,2.38-92-10.06-38-30-64.65-56-80.88-27.27-17-61.28-22.72-97.87-18.25-32,3.89-65.9,15.6-98.83,34.44Z"/><path class="cls-32" d="M2829.36,935.66c53.69,76,12.14,101.55,7.63,104l-.39.2a3.83,3.83,0,0,1-5.17-1.66,3.78,3.78,0,0,1,.94-4.72l.27-.18a2.24,2.24,0,0,1,.45-.27,1.13,1.13,0,0,1,.27-.15c3.42-1.9,38.72-23.39-10.32-92.79-35.13-49.77-84.36-82-136.95-94a208.34,208.34,0,0,0-85.38-1.79A203.11,203.11,0,0,0,2553,859.62q-5.08,2.34-10,5a213.89,213.89,0,0,0-23.67,14.55c-43.27,30.54-80,79.87-102.39,149.86-1.67,5.22-3.27,10.54-4.77,16l-7.19-2.86q2.25-8.17,4.77-16c23-71.44,60.68-121.9,105.13-153.27,5.64-4,11.37-7.68,17.25-11,3.26-1.92,6.61-3.73,10-5.44a213.12,213.12,0,0,1,145.75-17.82C2742.21,851,2793,884.3,2829.36,935.66Z"/><g class="cls-13"><polygon class="cls-16" points="2449.59 984.04 2449.31 1081.85 2351.86 1138.49 2352.14 1040.68 2449.59 984.04"/><polygon class="cls-17" points="2352.14 1040.68 2351.86 1138.49 2253.76 1081.85 2254.04 984.04 2352.14 1040.68"/><polygon class="cls-18" points="2449.59 984.04 2352.14 1040.68 2254.04 984.04 2351.49 927.41 2449.59 984.04"/></g><g class="cls-13"><polygon class="cls-16" points="2571.42 1053.83 2571.15 1151.64 2473.69 1208.28 2473.97 1110.47 2571.42 1053.83"/><polygon class="cls-17" points="2473.97 1110.47 2473.69 1208.28 2375.6 1151.64 2375.88 1053.83 2473.97 1110.47"/><polygon class="cls-18" points="2571.42 1053.83 2473.97 1110.47 2375.88 1053.83 2473.33 997.2 2571.42 1053.83"/></g><g class="cls-13"><polygon class="cls-16" points="2693.26 1123.62 2692.98 1221.43 2595.53 1278.07 2595.81 1180.26 2693.26 1123.62"/><polygon class="cls-17" points="2595.81 1180.26 2595.53 1278.07 2497.43 1221.43 2497.71 1123.62 2595.81 1180.26"/><polygon class="cls-18" points="2693.26 1123.62 2595.81 1180.26 2497.71 1123.62 2595.16 1066.99 2693.26 1123.62"/></g><g class="cls-13"><polygon class="cls-19" points="2815.09 1193.41 2814.82 1291.22 2717.36 1347.86 2717.64 1250.05 2815.09 1193.41"/><polygon class="cls-17" points="2717.64 1250.05 2717.36 1347.86 2619.27 1291.22 2619.55 1193.41 2717.64 1250.05"/><polygon class="cls-18" points="2815.09 1193.41 2717.64 1250.05 2619.55 1193.41 2717 1136.78 2815.09 1193.41"/></g><path class="cls-37" d="M173.43,437.93c27.74-47.31,67.9-71.56,81.51-79.41L716.9,91.8c13.6-7.85,53.77-30,81.7-14.81a58.71,58.71,0,0,1,10.79,7.48l44.4,30.74L832.68,263l3.45,1214.61c.15,52.12-4.44,87.21-33.17,136.19-27.59,47-67.44,71.26-81.52,79.4L267.2,1955.46l-47.1,48.1-42.31-28.81c-28.93-15.72-33.68-45.41-33.83-97.51L140.27,574.11C140.12,522,144.69,486.9,173.43,437.93Z"/><path class="cls-38" d="M528.39,305.88c-5.9,3.4-10.65,11.61-10.63,18.36s4.8,9.44,10.69,6,10.64-11.61,10.63-18.34S534.26,302.49,528.39,305.88Z"/><path class="cls-39" d="M297.27,393.83l462-266.73C801,103,824.54,106,837,112.73c27.11,14.73,32,42,32.11,93.85l3.7,1303.12c.15,51.86-4.54,84.63-31.48,130.56-12.34,21-35.8,51.15-77.56,75.26l-462,266.76c-41.66,24.06-65.2,21.08-77.63,14.34-27.12-14.71-32-42-32.12-93.84L188.24,599.66c-.15-51.86,4.53-84.63,31.48-130.57C232.07,448.06,255.53,417.93,297.27,393.83ZM218.61,1887.38c.14,50.55,5.08,66.29,24,76.56,8.86,4.81,26.28,6.58,59-12.29l462-266.77c32.78-18.92,50.16-40.78,59-55.79,18.82-32.06,23.65-53.44,23.5-104L842.41,222c-.15-50.55-5.08-66.29-24-76.57-8.86-4.8-26.29-6.57-59,12.33l-462,266.73c-32.77,18.92-50.13,40.78-58.94,55.78-18.81,32.08-23.65,53.46-23.5,104l3.69,1303.12Z"/><path class="cls-26" d="M297.36,424.47l462-266.73c32.75-18.9,50.18-17.13,59-12.33,18.94,10.28,23.88,26,24,76.57L846.1,1525.1c.15,50.55-4.68,71.93-23.5,104-8.81,15-26.18,36.87-59,55.79L301.59,1951.65c-32.68,18.87-50.1,17.1-59,12.29-18.94-10.27-23.87-26-24-76.56L214.92,584.26c-.15-50.55,4.69-71.93,23.5-104C247.22,465.26,264.59,443.39,297.36,424.47Zm231.1-94.2c5.88-3.39,10.64-11.61,10.62-18.34s-4.81-9.44-10.69-6.05-10.64,11.61-10.62,18.36,4.79,9.44,10.69,6Z"/><path class="cls-38" d="M297.26,387.34l462-266.71c13.61-7.86,53.78-30,81.71-14.83,28.91,15.7,33.68,45.4,33.83,97.51l3.69,1303.12c.15,52.11-4.44,87.2-33.17,136.19-27.59,47-67.44,71.26-81.52,79.39L301.56,1988.86c-13.84,8-53.7,29.76-81.46,14.7-28.92-15.71-33.68-45.4-33.83-97.51L182.58,602.93c-.15-52.11,4.43-87.2,33.16-136.18C243.49,419.44,283.65,395.2,297.26,387.34ZM191.93,1902.78c.15,51.86,5,79.13,32.12,93.84,12.43,6.74,36,9.72,77.63-14.33l462.05-266.77c41.76-24.11,65.22-54.23,77.56-75.26,26.94-45.93,31.63-78.7,31.48-130.56l-3.7-1303.12c-.14-51.86-5-79.12-32.11-93.85C824.54,106,801,103,759.27,127.1l-462,266.73c-41.75,24.1-65.21,54.22-77.56,75.26C192.77,515,188.09,547.8,188.24,599.66l3.69,1303.12Z"/><path class="cls-35" d="M335.57,1484.81l210.54,121.54a326.93,326.93,0,0,1,163.43,283.1l.63,101.94a349.93,349.93,0,0,0,175,300.89l607.55,350.77L1901,2403l-607.66-350.83a349.94,349.94,0,0,1-175-303V1644.45A326.88,326.88,0,0,0,955,1361.37l-84.75-48.93-121.78-70.31Z"/><polygon class="cls-40" points="498.1 1496.24 715.5 1370.73 697.24 1360.19 479.84 1485.7 498.1 1496.24"/><polygon class="cls-40" points="733.43 1360.37 768.48 1340.14 750.22 1329.59 715.17 1349.83 733.43 1360.37"/><polygon class="cls-40" points="778.94 1386.65 813.99 1366.41 795.73 1355.87 760.68 1376.11 778.94 1386.65"/><polygon class="cls-40" points="543.61 1522.52 761 1397 742.75 1386.46 525.35 1511.97 543.61 1522.52"/><polygon class="cls-40" points="589.12 1548.79 806.51 1423.28 788.25 1412.73 570.86 1538.25 589.12 1548.79"/><polygon class="cls-40" points="824.45 1412.92 859.5 1392.68 841.24 1382.14 806.19 1402.38 824.45 1412.92"/><polygon class="cls-40" points="869.96 1439.2 905.01 1418.96 886.75 1408.42 851.7 1428.65 869.96 1439.2"/><polygon class="cls-40" points="634.62 1575.07 852.02 1449.55 833.76 1439.01 616.37 1564.52 634.62 1575.07"/><polygon class="cls-40" points="676.06 1600.88 893.46 1475.37 875.2 1464.83 657.8 1590.34 676.06 1600.88"/><polygon class="cls-40" points="911.39 1465.01 946.45 1444.78 928.19 1434.23 893.13 1454.47 911.39 1465.01"/><polygon class="cls-40" points="935.93 1484.25 970.99 1464.01 989.25 1477.46 954.19 1497.7 935.93 1484.25"/><polygon class="cls-40" points="718.86 1633.57 936.26 1508.06 918 1494.61 700.6 1620.12 718.86 1633.57"/><polygon class="cls-40" points="970.29 1521.53 1005.35 1501.29 1017.86 1518.5 982.8 1538.74 970.29 1521.53"/><polygon class="cls-40" points="747.47 1674.61 964.87 1549.09 951.59 1531.1 734.19 1656.62 747.47 1674.61"/><polygon class="cls-40" points="1002 1563.08 1037.05 1542.84 1046.84 1562.47 1011.79 1582.71 1002 1563.08"/><polygon class="cls-40" points="776.46 1718.58 993.85 1593.07 983.3 1572.65 765.9 1698.17 776.46 1718.58"/><polygon class="cls-40" points="886.35 2183.14 1094.4 2063.02 1076.93 2052.93 868.87 2173.05 886.35 2183.14"/><polygon class="cls-40" points="1111.57 2053.11 1145.12 2033.74 1127.64 2023.65 1094.09 2043.02 1111.57 2053.11"/><polygon class="cls-40" points="1155.12 2078.26 1188.67 2058.89 1171.19 2048.8 1137.65 2068.17 1155.12 2078.26"/><polygon class="cls-40" points="929.9 2208.29 1137.96 2088.17 1120.48 2078.08 912.42 2198.2 929.9 2208.29"/><polygon class="cls-40" points="973.45 2233.44 1181.51 2113.31 1164.04 2103.22 955.98 2223.35 973.45 2233.44"/><polygon class="cls-40" points="1198.68 2103.4 1232.22 2084.03 1214.75 2073.95 1181.2 2093.31 1198.68 2103.4"/><polygon class="cls-40" points="1242.23 2128.55 1275.78 2109.18 1258.3 2099.09 1224.76 2118.46 1242.23 2128.55"/><polygon class="cls-40" points="1017.01 2258.58 1225.07 2138.46 1207.59 2128.37 999.53 2248.49 1017.01 2258.58"/><polygon class="cls-40" points="1060.56 2283.73 1268.62 2163.6 1251.14 2153.51 1043.08 2273.64 1060.56 2283.73"/><polygon class="cls-40" points="1285.78 2153.69 1319.33 2134.33 1301.86 2124.24 1268.31 2143.61 1285.78 2153.69"/><polygon class="cls-40" points="1329.34 2178.84 1362.88 2159.47 1345.41 2149.38 1311.86 2168.75 1329.34 2178.84"/><polygon class="cls-40" points="1104.11 2308.87 1312.17 2188.75 1294.7 2178.66 1086.64 2298.78 1104.11 2308.87"/><polygon class="cls-40" points="1147.67 2334.02 1355.73 2213.9 1338.25 2203.81 1130.19 2323.93 1147.67 2334.02"/><polygon class="cls-40" points="1372.89 2203.99 1406.44 2184.62 1388.96 2174.53 1355.42 2193.9 1372.89 2203.99"/><polygon class="cls-40" points="1416.44 2229.13 1449.99 2209.76 1432.52 2199.67 1398.97 2219.04 1416.44 2229.13"/><polygon class="cls-40" points="1191.22 2359.16 1399.28 2239.04 1381.81 2228.95 1173.75 2349.08 1191.22 2359.16"/><line class="cls-1" x1="1321.88" y1="2434.6" x2="1580.65" y2="2285.2"/><polygon class="cls-40" points="795.22 1776.52 1008.05 1653.64 1003.34 1630.34 790.52 1753.22 795.22 1776.52"/><polygon class="cls-40" points="1025.61 1643.51 1059.92 1623.69 1055.22 1600.39 1020.9 1620.2 1025.61 1643.51"/><polygon class="cls-40" points="1030.83 1697.22 1065.47 1677.22 1065.47 1656.39 1030.83 1676.39 1030.83 1697.22"/><polygon class="cls-40" points="798.26 1831.5 1013.11 1707.46 1013.11 1686.62 798.26 1810.66 798.26 1831.5"/><polygon class="cls-40" points="798.26 1883.43 1013.11 1759.39 1013.11 1738.55 798.26 1862.6 798.26 1883.43"/><polygon class="cls-40" points="1030.83 1749.16 1065.47 1729.16 1065.47 1708.32 1030.83 1728.32 1030.83 1749.16"/><polygon class="cls-40" points="1030.83 1801.09 1065.47 1781.09 1065.47 1760.25 1030.83 1780.25 1030.83 1801.09"/><polygon class="cls-40" points="798.26 1935.36 1013.11 1811.32 1013.11 1790.48 798.26 1914.53 798.26 1935.36"/><polygon class="cls-40" points="798.26 1987.05 1013.11 1863.01 1013.11 1842.17 798.26 1966.21 798.26 1987.05"/><polygon class="cls-40" points="1030.83 1852.77 1065.47 1832.77 1065.47 1811.94 1030.83 1831.94 1030.83 1852.77"/><polygon class="cls-40" points="1033.75 1904.29 1068.39 1884.29 1065.47 1863.87 1030.83 1883.87 1033.75 1904.29"/><polygon class="cls-40" points="801.17 2038.56 1016.02 1914.52 1013.11 1894.1 798.26 2018.15 801.17 2038.56"/><polygon class="cls-40" points="810.96 2083.6 1025.81 1959.55 1018.16 1939.17 803.31 2063.21 810.96 2083.6"/><polygon class="cls-40" points="1043.54 1949.32 1078.18 1929.32 1070.53 1908.94 1035.88 1928.94 1043.54 1949.32"/><polygon class="cls-40" points="827.99 2124.07 1042.83 2000.03 1035.18 1979.65 820.34 2103.69 827.99 2124.07"/><polygon class="cls-40" points="1060.56 1989.8 1095.2 1969.8 1087.55 1949.42 1052.91 1969.42 1060.56 1989.8"/><polygon class="cls-40" points="847.59 2157.52 1062.44 2033.48 1050.47 2017.28 835.62 2141.33 847.59 2157.52"/><polygon class="cls-40" points="1080.16 2023.24 1114.8 2003.24 1102.84 1987.05 1068.19 2007.05 1080.16 2023.24"/><path class="cls-35" d="M757.78,713.86,299.57,978.41c-25.09,14.48-45.43-.89-45.43-34.35h0c0-33.45,20.34-72.31,45.43-86.79L757.78,592.72c25.09-14.49,45.43.89,45.43,34.34h0C803.21,660.51,782.87,699.38,757.78,713.86Z"/><text class="cls-41" transform="matrix(0.87, -0.5, 0, 1, 297.23, 837.45)">Loan Amount</text><path class="cls-35" d="M757.78,924.54,299.57,1189.09c-25.09,14.49-45.43-.89-45.43-34.34h0c0-33.45,20.34-72.32,45.43-86.8L757.78,803.4c25.09-14.48,45.43.89,45.43,34.35h0C803.21,871.2,782.87,910.06,757.78,924.54Z"/><text class="cls-41" transform="matrix(0.87, -0.5, 0, 1, 301.82, 1050.04)">Interest Rate</text><path class="cls-35" d="M757.78,1135.23,299.57,1399.78c-25.09,14.48-45.43-.9-45.43-34.35h0c0-33.45,20.34-72.31,45.43-86.8l458.21-264.54c25.09-14.49,45.43.89,45.43,34.34h0C803.21,1081.88,782.87,1120.74,757.78,1135.23Z"/><text class="cls-41" transform="matrix(0.87, -0.5, 0, 1, 301.82, 1262.64)">Loan Term</text><text class="cls-42" transform="matrix(0.87, -0.5, 0, 1, 467.3, 851.03)">$200,000</text><text class="cls-42" transform="matrix(0.87, -0.5, 0, 1, 659.8, 953.21)">4%</text><text class="cls-42" transform="matrix(0.87, -0.5, 0, 1, 546.19, 1232.12)">30 <tspan class="cls-43" x="109.9" y="0">years</tspan></text><text class="cls-44" transform="matrix(0.87, -0.5, 0, 1, 417.3, 591.38)">Payment</text><text class="cls-45" transform="matrix(0.87, -0.5, 0.87, 0.5, 1318.94, 2401.84)">Monthly Payment:</text><text class="cls-46" transform="matrix(0.87, -0.5, 0.87, 0.5, 1354.79, 2499.83)">$954.83</text></g></g></svg>