<svg id="Layer_1" data-name="Layer 1" xmlns="http://www.w3.org/2000/svg" xmlns:xlink="http://www.w3.org/1999/xlink" viewBox="0 0 4500 2500"><defs><style>.cls-1{fill:none;}.cls-2{fill:#aed3f0;}.cls-3{fill:#c3dcf3;}.cls-17,.cls-18,.cls-20,.cls-21,.cls-22,.cls-23,.cls-24,.cls-25,.cls-26,.cls-27,.cls-29,.cls-3,.cls-39,.cls-40,.cls-41,.cls-42,.cls-43,.cls-44,.cls-46,.cls-48,.cls-49,.cls-5,.cls-50,.cls-51,.cls-52,.cls-53,.cls-54,.cls-55,.cls-56,.cls-57,.cls-58,.cls-59,.cls-60,.cls-61,.cls-62,.cls-63,.cls-64,.cls-65,.cls-67,.cls-68,.cls-69,.cls-71,.cls-72,.cls-74{fill-rule:evenodd;}.cls-4{clip-path:url(#clip-path);}.cls-5{fill-opacity:0.15;}.cls-6{fill:#05837c;}.cls-7{fill:url(#linear-gradient);}.cls-8{fill:#9be6e1;}.cls-46,.cls-9{fill:#44ae9e;}.cls-10{fill:#069991;}.cls-11{fill:url(#linear-gradient-2);}.cls-12{fill:#f2ffe3;}.cls-13,.cls-72{fill:#ebd063;}.cls-14{fill:#cfcac1;}.cls-15{fill:#d3a75d;}.cls-16,.cls-17{fill:#045c58;}.cls-18{fill-opacity:0.29;}.cls-19,.cls-20{fill:#04615c;}.cls-21{fill-opacity:0.1;}.cls-22{fill:#fafdff;}.cls-23,.cls-70,.cls-73,.cls-74{fill:#fff;}.cls-24{fill:#bbe3f8;}.cls-25{fill:#bae4ff;}.cls-26{fill:#e8f6ff;}.cls-27{fill:#e3f3fc;}.cls-28{fill:#164f7b;}.cls-29,.cls-30{fill-opacity:0.09;}.cls-31{fill:#e68913;}.cls-32{fill:#ff9e23;}.cls-33{fill:#ffb43f;}.cls-34{fill:#cb8927;}.cls-35{clip-path:url(#clip-path-2);}.cls-36{fill:#b27822;}.cls-37{fill:#dfa857;}.cls-38{fill:#cf8c56;}.cls-39{fill:#f085af;}.cls-40{fill:#ec6198;}.cls-41{fill:#e52b75;}.cls-42{fill:#ffdfec;}.cls-43,.cls-45{fill:#fffbfd;}.cls-44{fill:#f9f2d4;}.cls-47{fill:#987e14;}.cls-48{fill-opacity:0.2;}.cls-49{fill:#4067b1;}.cls-50{fill:url(#linear-gradient-3);}.cls-51{fill:url(#linear-gradient-4);}.cls-52{fill:url(#linear-gradient-5);}.cls-53{fill:url(#linear-gradient-6);}.cls-54{fill:url(#linear-gradient-7);}.cls-55{fill:url(#linear-gradient-8);}.cls-56{fill:url(#linear-gradient-9);}.cls-57{fill:url(#linear-gradient-10);}.cls-58{fill:url(#linear-gradient-11);}.cls-59{fill:url(#linear-gradient-12);}.cls-60{fill-opacity:0.12;}.cls-61,.cls-66{fill:#76b5e6;}.cls-62{fill:#e6f3ff;}.cls-63{fill:url(#linear-gradient-13);}.cls-64{fill:url(#linear-gradient-14);}.cls-65{fill:url(#linear-gradient-15);}.cls-67{fill:#2a669c;}.cls-68{fill:#d5efeb;}.cls-69{fill:#52a1df;}.cls-71{fill:#f4e6ad;}.cls-73,.cls-74{fill-opacity:0.51;}</style><clipPath id="clip-path"><rect class="cls-1" width="4500" height="2500"/></clipPath><linearGradient id="linear-gradient" x1="1289.18" y1="1788.09" x2="1290.36" y2="1788.23" gradientTransform="matrix(-212, 706.81, 661.02, 125.38, -907699.95, -1134776.7)" gradientUnits="userSpaceOnUse"><stop offset="0" stop-color="#05837c"/><stop offset="1" stop-color="#003a37"/></linearGradient><linearGradient id="linear-gradient-2" x1="1287.81" y1="1790.49" x2="1288.99" y2="1790.41" gradientTransform="matrix(618.31, 209.78, 288.57, -673.7, -1311626.54, 936767.54)" gradientUnits="userSpaceOnUse"><stop offset="0" stop-color="#069991"/><stop offset="1" stop-color="#004c48"/></linearGradient><clipPath id="clip-path-2"><path class="cls-1" d="M3942.68,2148.8c102,83.17,284.19,112.43,407,65.37,57.74-22.11,92-57.17,101.58-96.74.56-2.35,12.88-78.83,13.27-81.25,7-42.74-26.09-16-77.23-57.72-102-83.16-284.2-112.39-407-65.37-61,23.39-84-12.84-91.14,29.49-.38,2.35-12.5,78.78-12.73,81.19-3.87,40.94,17.78,85.52,66.26,125"/></clipPath><linearGradient id="linear-gradient-3" x1="1293.5" y1="1781.53" x2="1294.68" y2="1781.43" gradientTransform="matrix(65.11, -132.45, 117.09, 47.23, -288724.36, 87591.83)" gradientUnits="userSpaceOnUse"><stop offset="0" stop-color="#fff" stop-opacity="0"/><stop offset="1" stop-color="#fff"/></linearGradient><linearGradient id="linear-gradient-4" x1="1293.47" y1="1781.36" x2="1294.65" y2="1781.26" gradientTransform="matrix(65.11, -132.45, 117.09, 47.23, -288847.42, 87567.94)" xlink:href="#linear-gradient-3"/><linearGradient id="linear-gradient-5" x1="1293.44" y1="1781.18" x2="1294.62" y2="1781.08" gradientTransform="matrix(65.11, -132.45, 117.09, 47.23, -288970.48, 87544.04)" xlink:href="#linear-gradient-3"/><linearGradient id="linear-gradient-6" x1="1293.41" y1="1781.01" x2="1294.59" y2="1780.9" gradientTransform="matrix(65.11, -132.45, 117.09, 47.23, -289095.15, 87521.35)" xlink:href="#linear-gradient-3"/><linearGradient id="linear-gradient-7" x1="1293.38" y1="1780.83" x2="1294.56" y2="1780.73" gradientTransform="matrix(65.11, -132.45, 117.09, 47.23, -289219.54, 87498.68)" xlink:href="#linear-gradient-3"/><linearGradient id="linear-gradient-8" x1="1293.35" y1="1780.66" x2="1294.53" y2="1780.56" gradientTransform="matrix(65.11, -132.45, 117.09, 47.23, -289340.67, 87474.89)" xlink:href="#linear-gradient-3"/><linearGradient id="linear-gradient-9" x1="1293.32" y1="1780.48" x2="1294.5" y2="1780.38" gradientTransform="matrix(65.11, -132.45, 117.09, 47.23, -289464.11, 87451.86)" xlink:href="#linear-gradient-3"/><linearGradient id="linear-gradient-10" x1="1293.29" y1="1780.31" x2="1294.47" y2="1780.21" gradientTransform="matrix(65.11, -132.45, 117.09, 47.23, -289586.19, 87429.38)" xlink:href="#linear-gradient-3"/><linearGradient id="linear-gradient-11" x1="1293.26" y1="1780.14" x2="1294.44" y2="1780.03" gradientTransform="matrix(65.11, -132.45, 117.09, 47.23, -289710.42, 87406.54)" xlink:href="#linear-gradient-3"/><linearGradient id="linear-gradient-12" x1="1293.23" y1="1779.96" x2="1294.41" y2="1779.86" gradientTransform="matrix(65.11, -132.45, 117.09, 47.23, -289833.81, 87382.51)" xlink:href="#linear-gradient-3"/><linearGradient id="linear-gradient-13" x1="1290.8" y1="1791.86" x2="1291.98" y2="1791.86" gradientTransform="matrix(23.67, -772.61, -772.61, -23.67, 1356053.36, 1041479.27)" xlink:href="#linear-gradient-3"/><linearGradient id="linear-gradient-14" x1="1291.01" y1="1791.84" x2="1292.2" y2="1791.84" gradientTransform="matrix(-0.17, -610.15, -610.15, 0.17, 1095645.18, 789383.65)" xlink:href="#linear-gradient-3"/><linearGradient id="linear-gradient-15" x1="1289.28" y1="1788.42" x2="1290.46" y2="1788.42" gradientTransform="matrix(-85.61, 864.45, 864.46, 85.61, -1434148.58, -1266473.22)" gradientUnits="userSpaceOnUse"><stop offset="0" stop-color="#e6f3ff"/><stop offset="1" stop-color="#52a9ff"/></linearGradient></defs><g id="c61"><rect class="cls-2" width="4500" height="2500"/><path class="cls-3" d="M0,2127.58c35.63,1.64,71.23,4.73,106.19,7.23,159.3,11.3,346.16,19.9,498.19,71.27C772.2,2262.8,934.66,2333.51,1107,2376.6c382.56,95.63,843.16,51.12,1189.21-140.69,163.75-90.77,316.27-198.81,442.64-337.53,265-290.87,309.64-505.55,712-653.87,185.79-68.5,395.06-124.44,593.6-132.92,149.27-6.34,307.47,12.73,455.56,37.93V2500H0ZM4500,432.69c-139.91,67.58-294.28,109.59-441,101.2-224.45-12.83-353-126.38-537.79-232.83-247.55-142.6-506.63-214.92-794.32-185.38C2345,154.89,2045.81,406.62,1708.23,559.25,1163.32,805.64,518.24,884.36,0,641.9V0H4500Z"/><rect class="cls-1" width="4500" height="2500"/><g class="cls-4"><path class="cls-5" d="M63.59,613.81l203.68,344.1L1659.7,1542.39,2263,907.11,1883.16,747.72Z"/><g id="path2608"><path class="cls-6" d="M59.63,291.35c.07-5.17.2-8.09.4-8.24l566.44-65.9,1264.7,547.06L1355.8,1171.88,66.25,619.56c-.37-.16-.83-9.06-1.34-23.87,6.17-1.9,3.43-3.93-.2-5.86-.08-2.61-.17-5.37-.26-8.26,2.78-.7,5.6-1.14,6.31-2.49.13-.26-.91-1-1-1.13a66.65,66.65,0,0,0-5.5-3.94c-.08-2.74-.15-5.58-.23-8.49a12.73,12.73,0,0,1,2,.1c1.52.25,5.92.47,4.73-.43a29.38,29.38,0,0,0-6.88-3.4c0-1.7-.09-3.42-.14-5.16,2.64-.85,5.73-1.26,7.31-1.72,1.42-.41,5.6-1.65,4.18-1.71A38.59,38.59,0,0,0,63.72,555c-.09-3.34-.17-6.77-.25-10.27a6.21,6.21,0,0,0,.87-1.21c.6-1.13.06-2.16-1-3.14-.09-4-.18-8.07-.28-12.21,3.57-1.23,7.26-2.4,8.15-5.7.66-2.46-3.94-2.57-8.36-3.43-.36-16.15-.72-33.29-1.06-50.68,1.59-.44,3.11-.8,4.42-1.16a14,14,0,0,0,2.25-.44c.34-1.72-3.3-.24-4.76-.85-.68-.27-1.33-.56-2-.84l-.1-5.6,0-2.1c.56-.12,1.07-.21,1.52-.28,2-.31,4.77-.32,6.72-1.3.18-.09.67-.18.53-.3-2.13-1.77-5.51-3.18-8.9-4.7-.5-27.57-1-55.14-1.29-79.71,2.72-1.21,5.14-2.52,6.1-4.6.09-.21-1.06-.85-1.19-.93a25.41,25.41,0,0,0-5-1.77q-.11-7.75-.19-15a24.82,24.82,0,0,1,2-3c.85-1.1,5-3.11,5-4.68s-3.44-2.57-7.16-3.57c-.07-6.95-.12-13.4-.16-19.27,1.56-1.4,5.76-2.23,7-3.57,2-2.15-2.73-3.8-7.06-4.84v-2c0-.71,0-1.41,0-2.12v-.58A39.5,39.5,0,0,1,65.76,303c.25-.06,1.35-.25,1.46-.61.23-.76-1-1-1.48-1.56A37.54,37.54,0,0,1,59.63,291.35Z"/></g><g id="path26081"><path class="cls-7" d="M59.63,291.35c.07-5.17.2-8.09.4-8.24l566.44-65.9,1264.7,547.06L1355.8,1171.88,66.25,619.56c-.37-.16-.83-9.06-1.34-23.87,6.17-1.9,3.43-3.93-.2-5.86-.08-2.61-.17-5.37-.26-8.26,2.78-.7,5.6-1.14,6.31-2.49.13-.26-.91-1-1-1.13a66.65,66.65,0,0,0-5.5-3.94c-.08-2.74-.15-5.58-.23-8.49a12.73,12.73,0,0,1,2,.1c1.52.25,5.92.47,4.73-.43a29.38,29.38,0,0,0-6.88-3.4c0-1.7-.09-3.42-.14-5.16,2.64-.85,5.73-1.26,7.31-1.72,1.42-.41,5.6-1.65,4.18-1.71A38.59,38.59,0,0,0,63.72,555c-.09-3.34-.17-6.77-.25-10.27a6.21,6.21,0,0,0,.87-1.21c.6-1.13.06-2.16-1-3.14-.09-4-.18-8.07-.28-12.21,3.57-1.23,7.26-2.4,8.15-5.7.66-2.46-3.94-2.57-8.36-3.43-.36-16.15-.72-33.29-1.06-50.68,1.59-.44,3.11-.8,4.42-1.16a14,14,0,0,0,2.25-.44c.34-1.72-3.3-.24-4.76-.85-.68-.27-1.33-.56-2-.84l-.1-5.6,0-2.1c.56-.12,1.07-.21,1.52-.28,2-.31,4.77-.32,6.72-1.3.18-.09.67-.18.53-.3-2.13-1.77-5.51-3.18-8.9-4.7-.5-27.57-1-55.14-1.29-79.71,2.72-1.21,5.14-2.52,6.1-4.6.09-.21-1.06-.85-1.19-.93a25.41,25.41,0,0,0-5-1.77q-.11-7.75-.19-15a24.82,24.82,0,0,1,2-3c.85-1.1,5-3.11,5-4.68s-3.44-2.57-7.16-3.57c-.07-6.95-.12-13.4-.16-19.27,1.56-1.4,5.76-2.23,7-3.57,2-2.15-2.73-3.8-7.06-4.84v-2c0-.71,0-1.41,0-2.12v-.58A39.5,39.5,0,0,1,65.76,303c.25-.06,1.35-.25,1.46-.61.23-.76-1-1-1.48-1.56A37.54,37.54,0,0,1,59.63,291.35Z"/></g><g id="path2612"><path class="cls-8" d="M1348.47,840.76,61.68,289.49c-3.28-1.41-3.37-6.23-.16-8.67L589.94-120.35,1884.1,434.08,1348.47,840.76"/></g><g id="path2616"><path class="cls-9" d="M1354.08,804.13,114.37,273l470-356.8L1824,447.33l-470,356.8"/></g><ellipse class="cls-8" cx="297.11" cy="286.96" rx="31.67" ry="80.86" transform="translate(-69.49 477.27) rotate(-71.44)"/><ellipse class="cls-8" cx="1261.2" cy="696.72" rx="31.67" ry="80.86" transform="translate(199.25 1670.54) rotate(-71.44)"/><g id="path2620"><path class="cls-8" d="M1503.73,447.64c-43-18.46-63.28-49-61.06-82.65L805.52,92c-59,12.8-120.45,10.91-165.94-8.57L502.25,24.58,271.39,199.83l137.39,58.85c44.23,18.95,64.49,50.81,60.88,85.56l641.84,275c54.42-9.52,109.53-6.56,151.3,11.33l165.79,71,240.92-182.93-165.78-71"/></g><g id="path2624"><path class="cls-9" d="M1135.8,431.55c-108.18,82.1-270.45,116.73-362.44,77.31s-78.86-137.94,29.26-220S1073,172.14,1165,211.52s78.91,137.93-29.21,220"/></g><g id="path2628"><path class="cls-9" d="M679.31,240.24c-53.13,40.37-140.29,54.22-194.6,30.93S429.37,196.33,482.58,156,622.87,101.78,677.18,125s55.27,74.85,2.13,115.21"/></g><path class="cls-8" d="M655.19,145.88a24.23,24.23,0,0,1,5,3.62,14.34,14.34,0,0,1,4.82,9.79q.27,5.44-3.48,11.65a46.38,46.38,0,0,1-11.36,12.15L623.91,175c4.07-3.39,5.77-6.34,5.07-8.88s-2.86-4.37-6.5-5.5a25.26,25.26,0,0,0-13.92-.15,32.89,32.89,0,0,0-12.27,5.7,15.6,15.6,0,0,0-4.84,5.87c-.94,2.12.34,4.7,3.81,7.75l10.5,9.67q10.15,9,6.7,18.15T598,225.32a81.55,81.55,0,0,1-17.76,10.44,111.38,111.38,0,0,1-20.51,6.64,95.89,95.89,0,0,1-21.22,2.26,73.54,73.54,0,0,1-9-.59l-14,11-19.16-5.93,14-10.9q-8.82-4.91-10.16-12.68-1.06-5.43,2.39-12t12.5-13.94l26.22,8.12a20.51,20.51,0,0,0-5.61,8.71q-1.29,4.42,6.64,6.88,6,1.86,14.35.56a31.28,31.28,0,0,0,14.72-6.29q5.16-4,5.84-7.83t-4.54-8.37l-9-7.6q-8.69-7.51-7.48-16.65t13.74-18.92a79.16,79.16,0,0,1,17.89-10.39,102.45,102.45,0,0,1,20.68-6.32,88.34,88.34,0,0,1,20.33-1.87q3.63.09,7,.51l17.56-13.71,19.16,5.93Z"/><g id="path26281"><path class="cls-9" d="M1407.72,536.64c-53.14,40.37-140.3,54.22-194.61,30.93s-55.33-74.84-2.13-115.22,140.29-54.17,194.61-30.92,55.26,74.85,2.13,115.21"/></g><path class="cls-8" d="M1383.58,442.28a24,24,0,0,1,5,3.62,14.33,14.33,0,0,1,4.81,9.79q.29,5.44-3.47,11.65a46.39,46.39,0,0,1-11.36,12.15l-26.22-8.12q6.11-5.07,5.07-8.88t-6.51-5.5a25.23,25.23,0,0,0-13.91-.15,33,33,0,0,0-12.27,5.7,15.58,15.58,0,0,0-4.84,5.87q-1.41,3.18,3.81,7.75l10.49,9.68q10.17,9,6.71,18.14t-14.51,17.74a81.79,81.79,0,0,1-17.76,10.44,111.48,111.48,0,0,1-20.52,6.64,95.74,95.74,0,0,1-21.21,2.26,73.41,73.41,0,0,1-9-.59l-14,11-19.15-5.93,14-10.9q-8.82-4.9-10.15-12.68-1.07-5.43,2.38-12T1243.31,496l26.22,8.12a20.63,20.63,0,0,0-5.62,8.71q-1.28,4.42,6.64,6.88,6,1.86,14.36.56a31.32,31.32,0,0,0,14.72-6.29q5.16-4,5.84-7.83t-4.54-8.37l-9-7.6q-8.68-7.51-7.48-16.65t13.73-18.92a79.23,79.23,0,0,1,17.9-10.39,102.26,102.26,0,0,1,20.68-6.32,88.29,88.29,0,0,1,20.33-1.87c2.41.06,4.77.23,7,.51l17.56-13.71,19.16,5.93Z"/><g id="path2636"><path class="cls-10" d="M1348.47,840.76,1884.1,434.08l6.15,332.68-535.63,406.68-6.15-332.68"/></g><g id="path26361"><path class="cls-11" d="M1348.47,840.76,1884.1,434.08l6.15,332.68-535.63,406.68-6.15-332.68"/></g><g id="path2640"><path class="cls-12" d="M440.09,451.59,718.81,571l536.54-407.08L976.58,44.3,440.09,451.59"/></g><g id="path2644"><path class="cls-13" d="M440,451.51l38.66,17L1015.52,60.94,976.86,44,440,451.51"/></g><g id="path2648"><path class="cls-13" d="M680.19,554.85l39.49,16.51,535.67-407.53-38.18-16.09-537,407.11"/></g><g id="path2652"><path class="cls-14" d="M440,451.5l6.17,333.4,280,121.31L718.88,571,440,451.5"/></g><g id="path2656"><path class="cls-15" d="M440,451.5l6.16,333.4,39.63,18.89-6.71-335.87L440,451.5"/></g><g id="path2660"><path class="cls-15" d="M680.73,554.36l5.77,334,39.62,18.89-6.37-336-39-16.91"/></g><g id="path2664"><path class="cls-16" d="M847.43,763.89,1350,971.14l-3.09.46,33.69-24.72,33.75-24.57L1482,873.5c22.52-16.31,45.22-32.44,67.85-48.59s45.4-32.06,68.09-48.12l.29.51c-22.23,16.81-44.34,33.79-66.69,50.44s-44.52,33.41-67,50l-67.1,49.67-33.69,24.71-33.7,24.56-1.55,1.13-1.48-.68L847.16,764.48l.27-.59"/></g><path class="cls-17" d="M757.77,816.19,1210.65,998s-230.48-93.57-262.8-99.74S757.77,816.19,757.77,816.19Z"/><path class="cls-17" d="M1349.56,905.18l.42-6.6-142.35-54.11Z"/><path class="cls-18" d="M726.26,905.67l1.51-330.3-8.26-3.57Z"/><path class="cls-18" d="M719.51,571.8l8.26,3.57,529.05-409.94-2.14-1.31Z"/><g id="path2668"><path class="cls-19" d="M63.36,567.68l189.31,80.06L63.55,575.23Z"/></g><path class="cls-20" d="M80.72,474,417.19,591.38s-143.56-60.69-169.76-69S80.72,474,80.72,474Z"/><path class="cls-20" d="M59.63,373.1l149.76,48.65L59.72,365s3.54,2.19,4.54,3.63S59.63,373.1,59.63,373.1Z"/><path class="cls-20" d="M232.78,425.45l142.43,43.9S277.1,449.12,232.78,425.45Z"/><path class="cls-21" d="M4403.13,1727.13l-672.44-166.46L2052,1845.54l1039.17,1483L5266.6,2959.35Z"/><path class="cls-22" d="M4420,1715.59l-672.45-166.46L2068.83,1834,3108,3317,5283.48,2947.8Z"/><path class="cls-23" d="M3038.32,2759.4c-7.22-10,3.4-21,23.7-24.49l1518.89-262.49c20.29-3.51,42.62,1.77,49.83,11.78s-3.4,21-23.69,24.48l-1518.9,262.49C3067.86,2774.68,3045.53,2769.4,3038.32,2759.4Z"/><polygon class="cls-24" points="4128.35 1868.59 3906.35 1906.95 4264.4 2403.69 4486.4 2365.32 4128.35 1868.59"/><polygon class="cls-24" points="3915.04 2077.12 3693.05 2115.49 3941.07 2459.57 4163.06 2421.2 3915.04 2077.12"/><polygon class="cls-24" points="3681.74 2257.91 3459.75 2296.28 3617.73 2515.45 3839.72 2477.08 3681.74 2257.91"/><polygon class="cls-24" points="3256 2171.73 3034.01 2210.09 3294.39 2571.32 3516.38 2532.96 3256 2171.73"/><polygon class="cls-24" points="2817.91 2068.4 2595.91 2106.76 2971.05 2627.2 3193.05 2588.84 2817.91 2068.4"/><polygon class="cls-23" points="2396.25 1922.67 3350.63 1760.72 3369.25 1787.3 2414.87 1949.25 2396.25 1922.67"/><polygon class="cls-23" points="2439.96 1985.05 3394.34 1823.1 3412.95 1849.67 2458.58 2011.62 2439.96 1985.05"/><path class="cls-25" d="M3747.57,1549.13l174.66,281.66L4434,1720.7Z"/><path class="cls-26" d="M3747.57,1549.13l163.94,254.93L4434,1720.7Z"/><path class="cls-21" d="M4885.12,1752.22l-561.16-272-1622,53.15L3182.29,3235l2101.93-68.88Z"/><path class="cls-22" d="M4917.58,3108.16,4343,1470.62l-1622,53.15,480.32,1701.62Z"/><polygon class="cls-24" points="3059.55 2078.49 3319.7 2055.87 3340.08 2122.17 3079.94 2144.79 3059.55 2078.49"/><polygon class="cls-24" points="3092.49 2185.64 3352.64 2163.02 3373.02 2229.33 3112.88 2251.95 3092.49 2185.64"/><polygon class="cls-24" points="3125.43 2292.78 3385.58 2270.16 3405.96 2336.47 3145.82 2359.08 3125.43 2292.78"/><polygon class="cls-24" points="3158.37 2399.92 3418.51 2377.3 3438.9 2443.61 3178.75 2466.22 3158.37 2399.92"/><polygon class="cls-24" points="4476.9 2476.73 4146.78 2505.43 4126.4 2439.13 4456.51 2410.43 4476.9 2476.73"/><polygon class="cls-27" points="3335.82 2054.47 4320.75 1968.84 4341.14 2035.14 3356.2 2120.77 3335.82 2054.47"/><polygon class="cls-27" points="3368.76 2161.62 4353.7 2075.99 4374.08 2142.3 3389.14 2227.93 3368.76 2161.62"/><polygon class="cls-27" points="3401.69 2268.76 4386.63 2183.13 4407.02 2249.44 3422.08 2335.07 3401.69 2268.76"/><polygon class="cls-27" points="3434.63 2375.9 4419.57 2290.27 4439.95 2356.57 3455.01 2442.2 3434.63 2375.9"/><path class="cls-28" d="M3026.48,1810.73l19.21-1.67,20.46,66.56-12.44,1.09-13.84-45c-.4-1.29-.94-3.11-1.63-5.44s-1.23-4.14-1.62-5.4l5.08,56.91-13,1.13-29.19-54.82c.39,1.27,1,3.06,1.71,5.39s1.32,4.15,1.71,5.44l13.84,45-12.44,1.09-20.46-66.57,19.42-1.69,27.71,51.33Z"/><path class="cls-28" d="M3113.82,1837.21q-3.45-11.19-10-16.91a18.82,18.82,0,0,0-14.47-5q-7.93.69-10.79,7.2t.61,17.75q3.45,11.25,10.05,16.93a19.1,19.1,0,0,0,14.54,5q7.93-.69,10.72-7.2T3113.82,1837.21Zm12.12,27.14q-4.84,8.4-18.55,9.59t-23.33-6q-12.63-8.67-18.15-26.61-5.62-18.29,1.27-28.3,4.86-8.4,18.55-9.59t23.33,6q12.49,8.32,18.11,26.61Q3132.69,1854,3125.94,1864.35Z"/><path class="cls-28" d="M3126.94,1802l14-1.22,39.74,44.26-14.29-46.47,12.44-1.09,20.47,66.57-13.36,1.16-40.63-45,14.53,47.28-12.44,1.08Z"/><path class="cls-28" d="M3237.71,1792.37l3.63,11.78-19.12,1.66,16.84,54.78-13.44,1.17L3208.78,1807l-19.21,1.67-3.62-11.78Z"/><path class="cls-28" d="M3265.89,1858.26l-20.46-66.57,13.22-1.15,7.8,25.39,25-2.17-7.8-25.39,13.26-1.15,20.47,66.56-13.27,1.16-9.13-29.72-25,2.17,9.13,29.72Z"/><path class="cls-28" d="M3309.64,1786.11,3323,1785l16.79,54.6,31.65-2.75,3.68,12-45,3.92Z"/><path class="cls-28" d="M3400.34,1778.23l15.13-1.32-8.6,43.41,7.69,25-13.35,1.16-7.69-25-34.89-39.63,15.74-1.37,22.18,27.85Z"/><path class="cls-28" d="M3477.34,1783.4l-12.44,1.09,6,19.59,12.44-1.08c3.15-.27,5.36-1.28,6.61-3s1.36-4.35.3-7.81-2.7-5.86-4.91-7.18A13,13,0,0,0,3477.34,1783.4Zm10.68,31-13.57,1.18,7.36,23.94-13.27,1.15-20.47-66.56,27.84-2.42a26.39,26.39,0,0,1,16.93,3.81q7.3,4.65,10.62,15.44,3.63,11.79-.6,17.17T3488,1814.37Z"/><path class="cls-28" d="M3537.2,1808.85l16.21-1.41-16-25.5Zm-11.91-41.49,15.09-1.31,43.09,64.6-14.48,1.26-8.32-13.33-23.54,2.05-.22,14.07-14,1.21Z"/><path class="cls-28" d="M3607.58,1760.21l15.13-1.32-8.6,43.41,7.69,25-13.35,1.16-7.69-25-34.89-39.62,15.74-1.37,22.18,27.84Z"/><path class="cls-28" d="M3672.7,1754.55l19.2-1.67,20.47,66.56-12.45,1.08-13.84-45c-.39-1.29-.93-3.11-1.63-5.44s-1.22-4.14-1.61-5.41l5.08,56.92-13,1.13-29.18-54.82q.58,1.89,1.7,5.39t1.72,5.44l13.84,45-12.44,1.08-20.47-66.56,19.43-1.69,27.71,51.33Z"/><path class="cls-28" d="M3755.19,1759.48l-33.82,2.94,4.35,14.14,31-2.7,3.55,11.56-31,2.69,5.26,17.12,35.38-3.07,3.68,12-48.43,4.21-20.47-66.56,46.87-4.08Z"/><path class="cls-28" d="M3763.31,1746.67l14-1.22,39.73,44.26-14.29-46.47,12.45-1.08,20.46,66.56-13.35,1.16-40.64-45,14.54,47.28-12.45,1.08Z"/><path class="cls-28" d="M3874.09,1737l3.62,11.79-19.12,1.66,16.84,54.78-13.44,1.16-16.84-54.77-19.21,1.67-3.62-11.79Z"/><path class="cls-28" d="M3012.34,1906.92l14-1.22,39.73,44.26-14.29-46.47,12.45-1.08L3084.7,1969l-13.35,1.16-40.64-45,14.54,47.28-12.45,1.08Z"/><path class="cls-28" d="M3121,1940.64q-2.28-7.41-6.41-11.16a12.16,12.16,0,0,0-9.55-3.27q-5.43.48-7.12,4.72t.58,11.66q2.28,7.41,6.44,11.17a12.19,12.19,0,0,0,9.58,3.3q5.42-.48,7.09-4.74T3121,1940.64Zm-3.12,27.21q-12.18,1.05-20.53-6.12a38,38,0,0,1-11.68-18q-3.28-10.65.3-19t15.76-9.4q12.2-1,20.57,6.24a38.2,38.2,0,0,1,11.66,18q3.33,10.83-.28,19.06T3117.92,1967.85Z"/><path class="cls-28" d="M3164.39,1911.5l13.26-1.15-1.9,50.71-13.05,1.13-32.09-47.75,13.88-1.21,21,35.46Z"/><path class="cls-28" d="M3220.39,1944q.63-6.78,8.23-15,6.59-7.11,8.25-10.08a12.08,12.08,0,0,0,1-9.73,13.89,13.89,0,0,0-4.33-6.72,9.46,9.46,0,0,0-7.18-2.2c-3.76.32-5.87,2-6.33,5q-.39,2.63,1.08,8.15l-12,1q-2.26-8.38-1.25-13.75,1.93-10.24,14.55-11.33a26.26,26.26,0,0,1,17.63,4.37,26.77,26.77,0,0,1,10.59,14.74,19.35,19.35,0,0,1-.2,13.27q-1.58,4-6.4,9.14l-3.82,4.08c-2.39,2.56-4,4.4-4.83,5.53a10.91,10.91,0,0,0-1.78,3.82L3261,1942l3.48,11.33-43.05,3.74A30.84,30.84,0,0,1,3220.39,1944Z"/><path class="cls-28" d="M3289.57,1942.08c2.83-.25,4.78-1.33,5.83-3.25s1.1-4.48.11-7.71a13.89,13.89,0,0,0-4.79-7.39,10.55,10.55,0,0,0-7.42-2c-2.77.24-4.71,1.29-5.81,3.17s-1.13,4.48-.11,7.82a14.06,14.06,0,0,0,4.71,7.29A10.47,10.47,0,0,0,3289.57,1942.08Zm-20.44-24.94a21,21,0,0,1-8-6.32,24.59,24.59,0,0,1-3.49-6.77q-2.19-7.14,1.42-12.62t13-6.3q9.41-.83,16.12,3.77a21.75,21.75,0,0,1,8.9,11.72,19.91,19.91,0,0,1,.75,7c-.16,2.53-1.47,4.83-4,6.9a24.72,24.72,0,0,1,9.19,6.57,26.68,26.68,0,0,1,5.41,9.78q2.55,8.26-1.55,14.58t-14.63,7.23q-10.53.91-17.73-4.42a26.19,26.19,0,0,1-9.75-13.59,20,20,0,0,1-.66-10.2A11.59,11.59,0,0,1,3269.13,1917.14Zm11.15-5.28c2.51-.22,4.23-1.14,5.14-2.76a7.53,7.53,0,0,0,.26-6,11,11,0,0,0-3.92-5.89,9.25,9.25,0,0,0-6.51-1.69q-3.72.33-5.15,2.7c-.95,1.59-1,3.67-.24,6.26a10.72,10.72,0,0,0,3.89,5.64A9.25,9.25,0,0,0,3280.28,1911.86Z"/><polygon class="cls-28" points="3309.67 1916.68 3334.56 1914.52 3338.31 1926.71 3313.42 1928.88 3309.67 1916.68"/><path class="cls-28" d="M3374.49,1887.31l13.35,43.44,12.32-1.07q9.45-.83,10.2-10.86a35.79,35.79,0,0,0-1.87-12.86q-3.12-10.17-7.85-15.34t-13.83-4.38Zm21.34-12.25a28.77,28.77,0,0,1,13.48,7.5,40.4,40.4,0,0,1,7.86,10.35,64,64,0,0,1,4.6,10.92q4.08,13.28,1.8,22.93-3.12,13-17.6,14.28l-27.53,2.39L3358,1876.87l27.53-2.39A35,35,0,0,1,3395.83,1875.06Z"/><path class="cls-28" d="M3441.5,1907.63l19.21-1.67a15.12,15.12,0,0,0-5.35-7.49,11.08,11.08,0,0,0-7.43-2.06q-4.29.36-5.79,3.38C3441.14,1901.79,3440.93,1904.41,3441.5,1907.63Zm24.54-13.87a33.54,33.54,0,0,1,6.72,9.86,78.33,78.33,0,0,1,3.39,9.72l-32.34,2.81q2.54,7.38,7.66,10a11.94,11.94,0,0,0,6.72,1.32,7,7,0,0,0,5.51-2.8,8.41,8.41,0,0,0,1.25-3.58l12.62-1.1a14,14,0,0,1-1.64,9.28q-3.87,7.71-14.79,8.65-9,.79-17.77-4.66t-12.95-19.09q-3.93-12.78.2-20.14t14.05-8.23a27,27,0,0,1,11.33,1.38A26.09,26.09,0,0,1,3466,1893.76Z"/><path class="cls-28" d="M3509.46,1899.63a15.29,15.29,0,0,0-3.3-4.81,9.17,9.17,0,0,0-7.38-2.42q-6.24.54-6.55,7.2a28.42,28.42,0,0,0,1.59,9.23,31.19,31.19,0,0,0,3.89,8.61q4.1,6,10.22,5.42c2.88-.25,4.69-1.24,5.4-3a11.19,11.19,0,0,0,.27-6.52l12.61-1.1a19.65,19.65,0,0,1-.66,11.47q-3.21,8.94-14.61,9.94t-19-5.59q-7.53-6.57-11-17.82-3.91-12.69-.13-20.25t14.22-8.47a28,28,0,0,1,15.82,2.89q6.95,3.66,11.22,14.09Z"/><path class="cls-28" d="M3561,1914.36q.63-6.79,8.23-14.95,6.59-7.11,8.25-10.09a12.12,12.12,0,0,0,1-9.73,13.83,13.83,0,0,0-4.34-6.72,9.49,9.49,0,0,0-7.18-2.2q-5.62.49-6.32,5-.39,2.63,1.08,8.16l-12,1q-2.27-8.37-1.24-13.75,1.93-10.25,14.55-11.33a26.21,26.21,0,0,1,17.63,4.38,26.79,26.79,0,0,1,10.59,14.73,19.38,19.38,0,0,1-.2,13.28q-1.58,4-6.4,9.13l-3.82,4.09a71.65,71.65,0,0,0-4.83,5.52,10.91,10.91,0,0,0-1.78,3.82l27.44-2.39,3.48,11.33-43,3.74A30.64,30.64,0,0,1,3561,1914.36Z"/><path class="cls-28" d="M3630.13,1912.47c2.83-.25,4.78-1.33,5.83-3.25s1.1-4.48.1-7.7a13.85,13.85,0,0,0-4.78-7.4,10.6,10.6,0,0,0-7.42-2q-4.16.36-5.81,3.17t-.11,7.82a14,14,0,0,0,4.71,7.29A10.44,10.44,0,0,0,3630.13,1912.47Zm-20.44-24.94a21,21,0,0,1-8-6.32,24.81,24.81,0,0,1-3.48-6.77q-2.19-7.14,1.42-12.62t13-6.3q9.4-.81,16.11,3.77a21.73,21.73,0,0,1,8.91,11.72,19.91,19.91,0,0,1,.75,7c-.16,2.53-1.47,4.83-4,6.9a24.72,24.72,0,0,1,9.19,6.57,26.68,26.68,0,0,1,5.41,9.78q2.55,8.26-1.55,14.58t-14.63,7.23q-10.53.92-17.74-4.42a26.08,26.08,0,0,1-9.74-13.59,19.81,19.81,0,0,1-.66-10.19A11.59,11.59,0,0,1,3609.69,1887.53Zm11.15-5.28q3.76-.33,5.13-2.76a7.48,7.48,0,0,0,.27-6,11.07,11.07,0,0,0-3.92-5.89,9.26,9.26,0,0,0-6.51-1.68q-3.72.31-5.15,2.69c-1,1.59-1,3.67-.24,6.26a10.72,10.72,0,0,0,3.89,5.64A9.2,9.2,0,0,0,3620.84,1882.25Z"/><path class="cls-29" d="M2600.31,1516.74l1433.69,276,173.95-254,144.23-6.24-32.36-79.8s-1675-182.39-1690.31-164.79S2600.31,1516.74,2600.31,1516.74Z"/><ellipse class="cls-30" cx="4122.29" cy="2119.18" rx="338.55" ry="176.24"/><g id="path4476"><path class="cls-31" d="M3969.25,2156.33c80.41,65.53,224.09,88.61,320.88,51.53s110.1-120.32,29.66-185.86-224.06-88.61-320.88-51.54-110.07,120.33-29.66,185.87"/></g><g id="path4478"><path class="cls-32" d="M3997,1982.41c96.83-37.08,240.47-14,320.88,51.53,37.84,30.84,54.92,65.58,52.33,97.58-7.5,31.24-34.54,58.9-80.08,76.34-96.79,37.08-240.47,14-320.88-51.53-37.81-30.84-54.92-65.58-52.33-97.58,7.5-31.25,34.57-58.89,80.08-76.34"/></g><g id="path4480"><path class="cls-31" d="M4193,2156.05l-38.72-31.55C4136,2140.78,4163.91,2161.18,4193,2156.05Zm-98.49-115.74,36.63,29.88C4146.45,2056.62,4124.48,2036.79,4094.46,2040.31Zm-49.24-39.71,8.64,7.05c88.74-30,196.18,45.74,121.18,98.34l50,40.79q12.89-8,19.19-18.65c5.27-8.88,21.36-13,37.93-9.18,15.94,3.63,27.55,8.06,27.16,17-.09,2-1.55,9-2.77,10.88-8.18,12.08-22.85,23.93-42.76,31.52l11.19.19c1.85,1.52-.34,9.78-.59,11.31s-1.5,3-3.73,3.8l-13,5a16.63,16.63,0,0,1-14.8-2.37l-8.54-7c-49.44,11.23-96.45,3.64-129.47-23.25q-46.73-38.1,4.27-78.38l-43-35.08a33.65,33.65,0,0,0-7.42,8.49c-5.55,8.72-22,12.43-38.35,8.69-21.17-4.77-33.42-20.79-24.26-31.33,6.74-7.8,16.44-13.4,28.39-19.17l-9-7.29c-1.75-1.43-2.45-3-2.14-4.48s.52-10.17,2.5-10.93l15.89,1.83a15,15,0,0,1,13.5,2.17"/></g><g id="path4482"><path class="cls-33" d="M4194.38,2147.1l-38.72-31.56C4137.42,2131.82,4165.33,2152.23,4194.38,2147.1Zm-98.49-115.75,36.63,29.88C4147.88,2047.66,4125.91,2027.83,4095.89,2031.35Zm-49.24-39.71,8.64,7c88.74-30,196.18,45.75,121.18,98.34l50,40.8q12.9-8,19.19-18.66c5.27-8.87,21.38-13,37.94-9.21,19.44,4.46,31.25,17.64,24.39,27.91-8.18,12.08-22.85,23.92-42.76,31.52l8.24,6.71c3.71,3.05,3.09,6.89-1.37,8.59l-13.05,5a16.63,16.63,0,0,1-14.8-2.38l-8.54-7c-49.44,11.24-96.45,3.65-129.47-23.24q-46.73-38.1,4.27-78.38l-43-35.08a33.65,33.65,0,0,0-7.42,8.49c-5.55,8.71-22,12.39-38.35,8.69-21.17-4.78-33-19.58-23.87-30.17,6.73-7.75,16.05-14.56,28-20.34l-8.95-7.29c-3.41-2.76-2.85-6.27,1.25-7.83l15-5.75a15.07,15.07,0,0,1,13.5,2.17"/></g><g id="path4484"><path class="cls-34" d="M3942.68,2148.8c102,83.17,284.19,112.43,407,65.37,57.74-22.11,92-57.17,101.58-96.74.57-2.39,12.88-78.83,13.27-81.25,7-42.74-26.06-16-77.23-57.72-102-83.12-284.2-112.39-407-65.37-61,23.39-84-12.84-91.14,29.49-.38,2.35-12.5,78.78-12.73,81.19-3.87,40.94,17.78,85.52,66.26,125"/></g><g id="g4486"><g id="g4488"><g class="cls-35"><path id="path4494" class="cls-36" d="M4443.12,2165.88a4.84,4.84,0,0,0,5.53-4l22.24-139.37a4.83,4.83,0,1,0-9.53-1.53l-22.24,139.37a4.82,4.82,0,0,0,4,5.54"/><path id="path4496" class="cls-36" d="M4443.23,2032.8,4421,2172.13a4.88,4.88,0,0,0,3.63,5.48l.44.07a4.88,4.88,0,0,0,5.57-4l22.23-139.33a4.88,4.88,0,0,0-4-5.58l-.45,0a4.88,4.88,0,0,0-5.15,4.08"/><path id="path4498" class="cls-36" d="M4425.09,2044.62l-22.22,139.25a4.94,4.94,0,0,0,3.73,5.54l.44.11a4.94,4.94,0,0,0,5.61-4.08l22.22-139.25a5,5,0,0,0-4.06-5.63l-.45,0a4.91,4.91,0,0,0-5.27,4.09"/><path id="path4500" class="cls-36" d="M4407,2056.44l-22.21,139.18a5,5,0,0,0,3.8,5.58l.48.12a4.94,4.94,0,0,0,5.61-4.11L4416.85,2058a4.93,4.93,0,0,0-4.07-5.63l-.48-.08a5,5,0,0,0-5.35,4.12"/><path id="path4538" class="cls-36" d="M4012.29,2219.84l.52.08a5.09,5.09,0,0,0,5.83-4.23l22.16-138.84a5.09,5.09,0,0,0-4.22-5.85l-.52-.08a5.07,5.07,0,0,0-5.83,4.23L4008.07,2214a5.1,5.1,0,0,0,4.22,5.84"/><path id="path4540" class="cls-36" d="M3992.25,2213.45l.53.08a5.08,5.08,0,0,0,5.78-4.24l22.16-138.84a5.07,5.07,0,0,0-4.18-5.84l-.52-.08a5.08,5.08,0,0,0-5.82,4.23L3988,2207.6a5.13,5.13,0,0,0,4.21,5.85"/><path id="path4544" class="cls-36" d="M3977.66,2046.73l-22.18,139a5.15,5.15,0,0,0,4.12,5.75l.49.08a5,5,0,0,0,5.77-4.17L3988,2048.4a5.07,5.07,0,0,0-4.19-5.8l-.48-.08a5.17,5.17,0,0,0-5.71,4.21"/><path id="path4546" class="cls-36" d="M3965.16,2031.1l-22.18,139a5.06,5.06,0,0,0,4,5.7l.48.12a5,5,0,0,0,5.74-4.17l22.19-139a5,5,0,0,0-4.16-5.72l-.49-.08a5.05,5.05,0,0,0-5.62,4.15"/><path id="path4550" class="cls-36" d="M3940.16,1999.87,3918,2139a5,5,0,0,0,3.87,5.63l.48.08a5,5,0,0,0,5.65-4.11l22.21-139.14a5,5,0,0,0-4.1-5.67l-.48-.08a5,5,0,0,0-5.43,4.14"/><path id="path4552" class="cls-36" d="M3927.66,1984.24l-22.21,139.22a5,5,0,0,0,3.76,5.58l.48.08a4.91,4.91,0,0,0,5.61-4.08l22.22-139.21a4.93,4.93,0,0,0-4.06-5.63l-.48-.08a5,5,0,0,0-5.32,4.12"/><path id="path4558" class="cls-36" d="M3871.88,2082.32a4.85,4.85,0,0,0,5.52-4L3899.64,1939a4.82,4.82,0,1,0-9.52-1.53l-22.24,139.36a4.84,4.84,0,0,0,4,5.54"/></g></g></g><g id="path4560"><path class="cls-37" d="M3954.5,2074.74c102,83.16,284.19,112.42,407,65.36s139.63-152.54,37.62-235.71-284.2-112.39-407-65.37-139.59,152.59-37.61,235.72"/></g><g id="path4562"><path class="cls-13" d="M3965.18,2070.67c97.09,79.13,270.56,107,387.42,62.23s132.89-145.25,35.81-224.41-270.53-107-387.42-62.22-132.89,145.24-35.81,224.4"/></g><g id="path4564"><path class="cls-38" d="M4001.55,2056.73c80.4,65.57,224.05,88.64,320.87,51.54s110.07-120.29,29.66-185.87-224.09-88.61-320.87-51.53-110.11,120.32-29.66,185.86"/></g><g id="path4566"><path class="cls-15" d="M4029.3,1882.85c96.79-37.12,240.47-14,320.88,51.5,37.8,30.83,54.92,65.57,52.32,97.61-7.49,31.21-34.57,58.85-80.08,76.31-96.82,37.1-240.47,14-320.87-51.54-37.84-30.84-54.92-65.58-52.37-97.58,7.53-31.21,34.57-58.86,80.12-76.3"/></g><g id="path4568"><path class="cls-38" d="M4225.25,2056.49l-38.72-31.59C4168.29,2041.18,4196.17,2061.58,4225.25,2056.49Zm-98.53-115.78,36.66,29.88C4178.71,1957,4156.77,1937.23,4126.72,1940.71ZM4077.51,1901l8.65,7c88.74-30,196.14,45.74,121.14,98.33l50.06,40.8c8.59-5.28,15-11.52,19.19-18.61,4.34-7.4,56,6.36,56,6.36l-.48,13.32s-16.09,22.89-36,30.53l11.19.15c1.85,1.52-.3,9.78-.55,11.35s-1.54,2.93-3.78,3.8l-13,5a16.6,16.6,0,0,1-14.8-2.38l-8.54-6.95c-49.44,11.23-96.45,3.68-129.43-23.24q-46.79-38.11,4.27-78.38L4098.32,1953c-2.71,2.17-32.24,29.92-32.24,29.92l-45.22-29,2-9.18s25.09-20.75,33.86-25l-8.94-7.29c-1.76-1.43-2.46-3-2.15-4.48s.55-10.13,2.5-10.89l15.88,1.82a15.12,15.12,0,0,1,13.54,2.18"/></g><g id="path4570"><path class="cls-13" d="M4226.68,2047.5,4188,2016C4169.72,2032.23,4197.6,2052.62,4226.68,2047.5Zm-98.53-115.75,36.66,29.88C4180.14,1948.06,4158.2,1928.27,4128.15,1931.75Zm-49.2-39.7,8.64,7c88.74-29.95,196.14,45.74,121.14,98.33l50.06,40.8c19.05-10.62,26.61-24.24,26.61-24.24l47.51,20.71s-15.49,27.49-35.4,35.12l8.23,6.72c3.72,3,3.11,6.85-1.37,8.58l-13,5a16.63,16.63,0,0,1-14.8-2.38l-8.54-7c-49.44,11.23-96.45,3.64-129.43-23.24q-46.79-38.12,4.27-78.38l-43.08-35.08c-2.71,2.16-32.45,29.57-32.45,29.57l-45.19-28.52s24.08-28.56,36-34.38l-9-7.29c-3.37-2.76-2.81-6.27,1.25-7.8l15-5.78a15.12,15.12,0,0,1,13.54,2.18"/></g><path class="cls-39" d="M2722,124.53l1483,278.7,136.23,1056.15-14.82,19L2858.2,1180.68Z"/><polygon class="cls-40" points="4191.04 422.08 2708.02 143.39 2844.25 1199.53 4327.27 1478.22 4191.04 422.08"/><path class="cls-41" d="M4327.51,1477.59l-173.76-32.27,51.7-97.4Z"/><path class="cls-41" d="M4203.4,1330.32l-164.63-8.84-27.15,353.4Z"/><path class="cls-39" d="M2708.76,141.69l1483,278.7-160.33,1246L4009,1676.53,2548.43,1387.67Z"/><polygon class="cls-42" points="4170.48 430.5 2687.46 151.8 2527.13 1397.78 4010.15 1676.47 4170.48 430.5"/><path class="cls-39" d="M4340,1461.08l-137.21-131.42-193.88,348.95,23.15-12.13,176.81-307.56,118.5,119.44Z"/><path class="cls-43" d="M2868.05,1124.77l164.71,31-24.09,187.2L2844,1312Zm-183.15-34.42,164.71,31-24.09,187.21-164.71-31Zm915.78,172.1,164.7,31-24.08,187.2-164.71-30.95Zm-549.47-103.26,164.71,31-24.09,187.2-164.71-30.95Zm732.62,137.67,164.71,31L3924.45,1515l-164.71-31ZM3417.52,1228l164.71,31-24.09,187.2-164.71-31Zm-183.15-34.42,164.7,31L3375,1411.76l-164.71-31ZM2895.2,913.82l164.71,31L3035.82,1132l-164.71-31ZM2712,879.41l164.71,31-24.09,187.2-164.7-31Zm915.78,172.09,164.71,31-24.09,187.21-164.71-31ZM3078.35,948.24l164.71,31L3219,1166.4l-164.7-31ZM3811,1085.92l164.7,30.95-24.09,187.2-164.7-31Zm-366.31-68.84,164.7,30.95-24.09,187.21-164.7-31Zm-183.16-34.42,164.71,31-24.09,187.21-164.71-31ZM2922.34,702.88l164.71,31L3063,921l-164.71-31Zm-183.15-34.42,164.71,30.95-24.09,187.21-164.71-31ZM3655,840.55l164.71,31-24.09,187.2-164.7-31ZM3105.5,737.3l164.71,31-24.09,187.2-164.71-31ZM3838.12,875l164.71,31-24.09,187.2-164.71-31Zm-366.31-68.83,164.71,31-24.09,187.2-164.71-30.95Zm-183.16-34.42,164.71,30.95-24.09,187.2-164.7-31ZM3865.27,664,4030,695l-24.09,187.2-164.7-30.95ZM2949.49,491.93l164.71,30.95-24.09,187.2-164.71-31Zm-183.16-34.42L2931,488.46,2907,675.67l-164.71-31Zm915.78,172.1,164.71,30.95-24.09,187.2-164.71-31ZM3132.64,526.35l164.71,30.95-24.09,187.2-164.71-31ZM3499,595.19l164.71,30.95-24.09,187.2-164.7-31ZM3315.8,560.77l164.71,31-24.09,187.2L3291.71,748Z"/><path class="cls-40" d="M3783.83,1296.86l164.71,31L3924.45,1515l-164.71-31ZM3811,1085.92l164.7,30.95-24.09,187.2-164.7-31Zm27.14-211,164.71,31-24.09,187.2-164.71-31Zm27.15-211L4030,695l-24.09,187.2-164.7-30.95ZM2766.33,457.51,2931,488.46Z"/><path class="cls-44" d="M2654.06,1322.66c.84-6.52,6.16-10.92,11.89-9.85L2895.86,1356c5.72,1.08,9.7,7.23,8.86,13.75s-6.17,10.91-11.89,9.83l-229.92-43.21C2657.19,1335.32,2653.22,1329.17,2654.06,1322.66Z"/><path class="cls-43" d="M3341.34,463.23c3.06-23.74,22.5-39.83,43.39-35.9L4014.4,545.66c20.89,3.92,35.37,26.39,32.31,50.13s-22.49,39.83-43.38,35.9L3373.65,513.36C3352.76,509.44,3338.29,487,3341.34,463.23Z"/><ellipse class="cls-45" cx="3263.61" cy="453.48" rx="23.89" ry="27.27" transform="translate(-23.83 230.98) rotate(-4.04)"/><ellipse class="cls-45" cx="3167.41" cy="435.4" rx="23.89" ry="27.27" transform="translate(-22.8 224.16) rotate(-4.04)"/><ellipse class="cls-45" cx="3071.22" cy="417.32" rx="23.89" ry="27.27" transform="matrix(1, -0.07, 0.07, 1, -21.77, 217.34)"/><path class="cls-46" d="M3644.18,1217.46c-56,19.54-102.29,67.5-109.46,128.69-6,51.34,13.85,95.5,47.22,122.17s80.54,36,129.37,17.09c25.28-9.82,45.61-26.92,63.5-47,19.67-22.07,39-46.7,47.26-75.59,16.92-58.92-8.11-102.32-50.73-129.88-61.36-39.7-160.39-45.06-217.09-16a9.56,9.56,0,0,0,8.7,17C3584.93,1222.76,3613.87,1217.27,3644.18,1217.46Zm37.43,3a9.56,9.56,0,0,1-7.83,8.89c-59.3,10.71-112.83,56.85-120.11,119-5.17,44,11.52,82.09,40.16,105s68.87,30.41,110.59,14.21c22.43-8.71,40.3-24.09,56.17-41.88,17.79-20,35.65-42,43.15-68.14,17.82-62.08-20.59-103.18-73-123.89A232.42,232.42,0,0,0,3681.61,1220.5Z"/><path class="cls-46" d="M3735.52,1277.23c-8.78-2.12-16.81-6.71-25.61-8.77-25-5.85-53-1.86-75.6,10-6.88,3.58-24.94,16.59-30.13,28.75-3.54,8.28-2.84,16.33,4.43,23.1,5.17,4.82,12.08,7.56,19.68,8.92,8.86,1.58,18.72,1.21,26.22,1.81,26.35,2.13,55.78,3.23,79.48,16.37a31.6,31.6,0,0,1,7.52,5.46c1.23,1.3,2.1,2.43,2,3.69-.13,2.14-1.93,3.85-4,5.65a46.72,46.72,0,0,1-13.8,7.7,164.32,164.32,0,0,1-22.28,6.85c-13.41,3-26.93,1.4-40.56,1.33-20.08-.09-40-1.43-60-1.77a9.57,9.57,0,0,0-.33,19.13c20.07.35,40,1.67,60.21,1.78,15.07.08,30,1.55,44.84-1.8a184,184,0,0,0,24.84-7.61c9.28-3.52,17.4-8.51,22.62-14.1,4.61-4.94,7.16-10.45,7.49-16,.49-8.44-4-18.48-19.38-27-26-14.44-58.21-16.36-87.17-18.69-5.95-.48-13.48-.27-20.7-1.05-5.2-.58-10.31-1.44-13.76-4.63-.35-.33-.17-.75,0-1.14a14.2,14.2,0,0,1,1.71-3.09c5.21-7.47,15.61-14.41,19.85-16.62,18.71-9.75,41.79-13.12,62.47-8.28,8.75,2,16.72,6.61,25.44,8.74a9.58,9.58,0,0,0,4.5-18.62Z"/><path class="cls-46" d="M3663.63,1252.82a9.5,9.5,0,0,0-.07-6.54,8.85,8.85,0,0,0-8-6.19,9,9,0,0,0-9.61,5.57,73.17,73.17,0,0,0-1.92,11.18c-.05,4.22,0,8.42,0,12.62,0,13.76.51,27.63-.37,41.36-2.55,39.75,1.18,86.81-5.56,125.79a9.54,9.54,0,1,0,18.79,3.28c6.87-39.62,3.23-87.45,5.81-127.84.9-14.14.41-28.42.41-42.59,0-4.13,0-8.26,0-12.4C3663.05,1256.49,3663.45,1254,3663.63,1252.82ZM3652.4,1259a9.53,9.53,0,0,1-6.7-5.92A8.6,8.6,0,0,0,3652.4,1259Z"/><path class="cls-46" d="M3683.53,1246c1.4,45.24,2.26,90.69,2.26,136,0,6.89-2.1,26-1.73,39.57.2,7.89,1.56,14.31,3.48,17.63a9.55,9.55,0,1,0,16.47-9.68c-.46-.78-.45-2.14-.6-3.74a91.07,91.07,0,0,1-.3-10.37c.22-12.69,1.76-27.52,1.76-33.41,0-45.5-.86-91.15-2.27-136.59a9.54,9.54,0,1,0-19.07.6Z"/><ellipse class="cls-47" cx="4058.41" cy="490.99" rx="16.1" ry="11.01" transform="translate(2990.08 4436.93) rotate(-81.75)"/><path class="cls-48" d="M4091,415.39l-16-2.78-18.32,62.78c9.29-.75,11.66,5.29,12.72,12.61Z"/><path class="cls-49" d="M4148.49,394.54q1.23-5.22,2.21-10.49c6.34-34.09,2.88-61.39-6.6-75.88-7.91-12.1-19.72-16.57-34.15-11.85-12.31,4-25.47,15.22-37.18,31.59-15.81,22.09-29.4,53.78-35.49,86.54-6.34,34.09-2.88,61.39,6.6,75.87,4.21,6.44,9.51,10.71,15.72,12.6,8.15-6.82,10.32-13.95,4.29-21.49-2.81-2.19-5-5.75-6.76-10.21-5-12.85-5.56-32.62-1.19-56.13,5.41-29.09,17.31-57.28,31.34-76.9,8.19-11.44,16.87-20,25.47-22.8s14.51,2.56,18.1,11.88c5,12.86,5.56,32.63,1.19,56.14-.49,2.6-1,5.19-1.61,7.77Z"/><path class="cls-50" d="M4057.84,406a206,206,0,0,0-4.77,20.06c-4.37,23.52-3.78,43.27,1.18,56.14,1.72,4.45,3.95,8,6.77,10.19a15.92,15.92,0,0,1,3.1,5.9c4.19-5.41,4.46-11-.23-16.9-2.81-2.19-5-5.74-6.76-10.21-5-12.85-5.56-32.62-1.19-56.14C4056.51,412.07,4057.14,409,4057.84,406Zm90.1-11.6.55.09q1.23-5.22,2.21-10.48c6.34-34.09,2.88-61.39-6.6-75.88-7.91-12.09-19.72-16.57-34.15-11.85-12.31,4-25.47,15.22-37.18,31.59-14.11,19.72-26.46,47.09-33.28,76,7.13-24.82,18.09-47.84,30.4-65,11.71-16.36,24.87-27.55,37.18-31.59,14.43-4.72,26.24-.24,34.15,11.85C4150.64,333.58,4154.12,360.64,4147.94,394.44Z"/><ellipse class="cls-47" cx="3913" cy="462.66" rx="16.1" ry="11.01" transform="matrix(0.14, -0.99, 0.99, 0.14, 2893.57, 4268.77)"/><path class="cls-48" d="M3945.63,387.06l-16-2.78-18.32,62.78c9.29-.75,11.66,5.29,12.72,12.61Z"/><path class="cls-49" d="M4003.08,366.21q1.23-5.22,2.21-10.49c6.34-34.08,2.88-61.39-6.6-75.88-7.91-12.09-19.71-16.57-34.15-11.85-12.31,4-25.47,15.23-37.18,31.59-15.81,22.09-29.4,53.78-35.49,86.54-6.34,34.09-2.88,61.39,6.6,75.87,4.21,6.44,9.51,10.71,15.72,12.6,8.16-6.82,10.32-13.95,4.29-21.49-2.81-2.19-5-5.75-6.76-10.21-5-12.85-5.56-32.61-1.19-56.13,5.41-29.09,17.31-57.28,31.35-76.9,8.18-11.44,16.86-20,25.47-22.8s14.5,2.56,18.09,11.88c5,12.86,5.56,32.63,1.19,56.14q-.74,3.9-1.6,7.77Z"/><path class="cls-51" d="M3912.43,377.71c-1.91,6.57-3.51,13.29-4.77,20.06-4.37,23.52-3.77,43.27,1.18,56.14,1.72,4.45,4,8,6.77,10.2a15.77,15.77,0,0,1,3.1,5.9c4.19-5.42,4.47-11-.22-16.91-2.82-2.19-5-5.74-6.77-10.2-5-12.86-5.56-32.63-1.18-56.15C3911.1,383.74,3911.73,380.71,3912.43,377.71Zm90.1-11.6.55.09q1.23-5.2,2.21-10.48c6.34-34.08,2.88-61.39-6.6-75.88-7.91-12.09-19.71-16.57-34.15-11.85-12.31,4-25.47,15.23-37.18,31.59-14.11,19.72-26.46,47.09-33.28,76.05,7.13-24.82,18.09-47.83,30.4-65,11.72-16.36,24.87-27.55,37.19-31.58,14.43-4.73,26.23-.25,34.14,11.84C4005.23,305.25,4008.71,332.31,4002.53,366.11Z"/><ellipse class="cls-47" cx="3767.59" cy="434.33" rx="16.1" ry="11.01" transform="translate(2797.07 4100.6) rotate(-81.75)"/><path class="cls-48" d="M3800.23,358.74l-16-2.79-18.32,62.78c9.29-.74,11.66,5.29,12.73,12.61Z"/><path class="cls-49" d="M3857.68,337.88q1.21-5.22,2.21-10.49c6.33-34.08,2.87-61.39-6.61-75.88-7.91-12.09-19.71-16.57-34.14-11.84-12.32,4-25.47,15.22-37.19,31.58-15.8,22.09-29.4,53.78-35.49,86.54-6.33,34.09-2.87,61.4,6.61,75.87,4.2,6.44,9.5,10.71,15.71,12.6,8.16-6.82,10.33-13.95,4.3-21.49-2.81-2.19-5-5.74-6.77-10.2-4.95-12.86-5.55-32.62-1.18-56.14,5.41-29.09,17.3-57.28,31.34-76.9,8.19-11.44,16.86-20,25.47-22.79s14.5,2.56,18.09,11.87c5,12.86,5.56,32.63,1.19,56.14-.48,2.6-1,5.19-1.6,7.77Z"/><path class="cls-52" d="M3767,349.38c-1.9,6.58-3.51,13.29-4.77,20.06-4.37,23.52-3.77,43.28,1.19,56.14,1.71,4.45,3.95,8,6.76,10.2a15.77,15.77,0,0,1,3.1,5.9c4.2-5.42,4.47-11-.22-16.91-2.81-2.19-5-5.74-6.77-10.2-4.95-12.86-5.55-32.63-1.18-56.15C3765.69,355.41,3766.32,352.38,3767,349.38Zm90.1-11.6.56.09q1.21-5.21,2.21-10.48c6.33-34.08,2.87-61.39-6.61-75.88-7.91-12.09-19.71-16.57-34.14-11.84-12.32,4-25.47,15.22-37.19,31.58-14.11,19.72-26.46,47.1-33.28,76.06,7.13-24.82,18.1-47.84,30.41-65.05,11.71-16.36,24.86-27.55,37.18-31.58,14.43-4.73,26.23-.25,34.14,11.84C3859.83,276.92,3863.3,304,3857.12,337.78Z"/><ellipse class="cls-47" cx="3620.29" cy="407.44" rx="16.1" ry="11.01" transform="translate(2697.52 3931.79) rotate(-81.75)"/><path class="cls-48" d="M3652.92,331.84l-16-2.78-18.32,62.77c9.29-.74,11.66,5.3,12.72,12.61Z"/><path class="cls-49" d="M3710.37,311q1.23-5.22,2.21-10.49c6.34-34.09,2.88-61.39-6.6-75.88-7.91-12.1-19.71-16.58-34.15-11.85-12.31,4-25.47,15.22-37.18,31.59-15.81,22.09-29.4,53.77-35.49,86.54-6.34,34.08-2.88,61.39,6.6,75.87,4.21,6.43,9.51,10.71,15.72,12.6,8.16-6.83,10.32-13.95,4.29-21.49-2.81-2.19-5-5.75-6.76-10.21-5-12.85-5.56-32.62-1.19-56.13,5.41-29.1,17.31-57.29,31.35-76.9,8.18-11.44,16.86-20,25.46-22.8s14.51,2.56,18.1,11.87c5,12.86,5.56,32.63,1.19,56.15-.49,2.59-1,5.19-1.6,7.76Z"/><path class="cls-53" d="M3619.72,322.49a206,206,0,0,0-4.77,20.06c-4.37,23.51-3.77,43.27,1.18,56.14,1.72,4.45,4,8,6.77,10.19a15.77,15.77,0,0,1,3.1,5.9c4.19-5.42,4.47-11-.23-16.9-2.81-2.2-5-5.74-6.76-10.21-5-12.85-5.56-32.62-1.18-56.14C3618.39,328.51,3619,325.48,3619.72,322.49Zm90.1-11.61.55.1q1.23-5.22,2.21-10.48c6.34-34.09,2.88-61.4-6.6-75.88-7.91-12.1-19.72-16.58-34.15-11.85-12.31,4-25.47,15.22-37.18,31.59-14.11,19.72-26.46,47.09-33.28,76.05,7.13-24.82,18.09-47.84,30.4-65,11.72-16.37,24.87-27.55,37.19-31.59,14.43-4.72,26.23-.25,34.14,11.85C3712.52,250,3716,277.09,3709.82,310.88Z"/><ellipse class="cls-47" cx="3473.31" cy="380.57" rx="16.1" ry="11.01" transform="translate(2598.23 3763.31) rotate(-81.75)"/><path class="cls-48" d="M3505.94,305l-16-2.78L3471.65,365c9.29-.74,11.67,5.3,12.73,12.61Z"/><path class="cls-49" d="M3563.39,284.11q1.23-5.21,2.21-10.49c6.34-34.08,2.88-61.39-6.6-75.88-7.92-12.09-19.72-16.57-34.15-11.84-12.31,4-25.47,15.22-37.18,31.59-15.81,22.08-29.4,53.77-35.49,86.53-6.34,34.09-2.88,61.4,6.6,75.88,4.2,6.43,9.51,10.7,15.72,12.59,8.15-6.82,10.32-13.94,4.29-21.48-2.81-2.2-5.05-5.75-6.76-10.21-5-12.86-5.56-32.62-1.19-56.13,5.41-29.1,17.3-57.29,31.34-76.91,8.19-11.44,16.86-20,25.47-22.79s14.51,2.56,18.1,11.87c5,12.86,5.56,32.63,1.18,56.14q-.72,3.9-1.6,7.77Z"/><path class="cls-54" d="M3472.74,295.61c-1.91,6.58-3.52,13.29-4.78,20.06-4.37,23.52-3.77,43.28,1.19,56.15,1.72,4.45,3.95,8,6.76,10.19a15.66,15.66,0,0,1,3.11,5.9c4.19-5.42,4.46-11-.23-16.9-2.81-2.2-5.05-5.75-6.76-10.21-5-12.85-5.56-32.63-1.19-56.14C3471.4,301.64,3472,298.61,3472.74,295.61Zm90.1-11.6.55.09q1.23-5.21,2.21-10.48c6.34-34.08,2.88-61.39-6.61-75.88-7.91-12.09-19.71-16.57-34.14-11.84-12.31,4-25.47,15.22-37.18,31.58-14.12,19.73-26.46,47.1-33.28,76.06,7.12-24.82,18.09-47.84,30.4-65,11.71-16.37,24.87-27.56,37.18-31.59,14.43-4.73,26.24-.25,34.15,11.85C3565.54,223.16,3569,250.21,3562.84,284Z"/><ellipse class="cls-47" cx="3330.19" cy="352.37" rx="16.1" ry="11.01" transform="translate(2503.55 3597.52) rotate(-81.75)"/><path class="cls-48" d="M3362.82,276.77l-16-2.78-18.32,62.78c9.29-.75,11.66,5.29,12.72,12.61Z"/><path class="cls-49" d="M3420.27,255.92q1.23-5.22,2.21-10.49c6.34-34.08,2.88-61.39-6.6-75.88-7.91-12.09-19.72-16.57-34.15-11.85-12.31,4-25.47,15.23-37.18,31.59-15.81,22.09-29.4,53.78-35.49,86.54-6.34,34.09-2.88,61.39,6.6,75.87,4.21,6.44,9.51,10.71,15.72,12.6,8.16-6.82,10.32-13.95,4.29-21.49-2.81-2.19-5-5.75-6.76-10.21-5-12.85-5.56-32.62-1.19-56.13,5.41-29.09,17.31-57.28,31.34-76.9,8.19-11.44,16.87-20,25.47-22.8s14.51,2.56,18.1,11.88c5,12.86,5.56,32.63,1.19,56.14-.49,2.6-1,5.19-1.61,7.77Z"/><path class="cls-55" d="M3329.62,267.42a206,206,0,0,0-4.77,20.06c-4.37,23.52-3.78,43.27,1.18,56.14,1.72,4.45,3.95,8,6.77,10.2a15.77,15.77,0,0,1,3.1,5.9c4.19-5.42,4.46-11-.23-16.91-2.81-2.19-5-5.74-6.76-10.2-5-12.86-5.56-32.63-1.19-56.15C3328.29,273.45,3328.92,270.42,3329.62,267.42Zm90.1-11.6.55.09q1.23-5.21,2.21-10.48c6.34-34.08,2.88-61.39-6.6-75.88-7.91-12.09-19.72-16.57-34.15-11.85-12.31,4-25.47,15.23-37.18,31.59-14.11,19.72-26.46,47.09-33.28,76,7.13-24.82,18.09-47.83,30.4-65,11.71-16.36,24.87-27.55,37.18-31.58,14.44-4.73,26.24-.25,34.15,11.84C3422.42,195,3425.9,222,3419.72,255.82Z"/><ellipse class="cls-47" cx="3184.33" cy="325.06" rx="16.1" ry="11.01" transform="translate(2405.65 3429.79) rotate(-81.75)"/><path class="cls-48" d="M3217,249.47l-16-2.79-18.32,62.78c9.29-.74,11.66,5.29,12.72,12.61Z"/><path class="cls-49" d="M3274.41,228.61q1.23-5.22,2.21-10.49c6.34-34.08,2.88-61.39-6.6-75.88-7.91-12.09-19.72-16.57-34.15-11.84-12.31,4-25.47,15.22-37.18,31.58-15.81,22.09-29.4,53.78-35.49,86.54-6.34,34.09-2.88,61.4,6.6,75.88,4.21,6.43,9.51,10.7,15.72,12.59,8.16-6.82,10.32-13.95,4.29-21.48-2.81-2.2-5-5.75-6.76-10.21-5-12.86-5.56-32.62-1.19-56.14,5.41-29.09,17.31-57.28,31.35-76.9,8.18-11.44,16.86-20,25.46-22.79s14.51,2.56,18.1,11.87c5,12.86,5.56,32.63,1.19,56.14q-.74,3.9-1.6,7.77Z"/><path class="cls-56" d="M3183.76,240.11c-1.91,6.58-3.52,13.29-4.77,20.06-4.37,23.52-3.77,43.28,1.18,56.15,1.72,4.44,4,8,6.77,10.19a15.77,15.77,0,0,1,3.1,5.9c4.19-5.42,4.47-11-.23-16.9-2.81-2.2-5-5.75-6.76-10.21-5-12.86-5.56-32.63-1.18-56.15C3182.43,246.14,3183.06,243.11,3183.76,240.11Zm90.1-11.6.55.09q1.23-5.21,2.21-10.48c6.34-34.08,2.88-61.39-6.6-75.88-7.91-12.09-19.72-16.57-34.15-11.84-12.31,4-25.47,15.22-37.18,31.58-14.11,19.72-26.46,47.1-33.28,76.06,7.13-24.82,18.09-47.84,30.4-65,11.72-16.36,24.87-27.55,37.18-31.58,14.44-4.73,26.24-.25,34.15,11.84C3276.56,167.65,3280,194.71,3273.86,228.51Z"/><ellipse class="cls-47" cx="3040.09" cy="298.43" rx="16.1" ry="11.01" transform="translate(2308.47 3264.22) rotate(-81.75)"/><path class="cls-48" d="M3072.72,222.83l-16-2.78-18.32,62.77c9.29-.74,11.66,5.3,12.72,12.61Z"/><path class="cls-49" d="M3130.17,202q1.23-5.21,2.21-10.49c6.34-34.08,2.88-61.39-6.6-75.88-7.91-12.09-19.72-16.57-34.15-11.84-12.31,4-25.47,15.22-37.18,31.59-15.81,22.08-29.4,53.77-35.49,86.53-6.34,34.09-2.88,61.4,6.6,75.88,4.21,6.43,9.51,10.7,15.72,12.59,8.16-6.82,10.32-13.94,4.29-21.48-2.81-2.2-5-5.75-6.76-10.21-5-12.86-5.56-32.62-1.19-56.13,5.41-29.1,17.31-57.29,31.34-76.91,8.19-11.44,16.87-20,25.47-22.79s14.51,2.56,18.1,11.87c5,12.86,5.56,32.63,1.19,56.14-.49,2.6-1,5.19-1.61,7.77Z"/><path class="cls-57" d="M3039.52,213.47c-1.91,6.58-3.52,13.29-4.77,20.06-4.37,23.52-3.78,43.28,1.18,56.15,1.72,4.45,4,8,6.77,10.19a15.77,15.77,0,0,1,3.1,5.9c4.19-5.42,4.46-11-.23-16.9-2.81-2.2-5-5.75-6.76-10.21-5-12.86-5.56-32.63-1.19-56.14C3038.19,219.5,3038.82,216.47,3039.52,213.47Zm90.1-11.6.55.09q1.23-5.21,2.21-10.48c6.34-34.08,2.88-61.39-6.6-75.88-7.91-12.09-19.72-16.57-34.15-11.84-12.31,4-25.47,15.22-37.18,31.58-14.11,19.73-26.46,47.1-33.28,76.06,7.13-24.82,18.09-47.84,30.4-65,11.71-16.37,24.87-27.56,37.18-31.59,14.44-4.73,26.24-.25,34.15,11.84C3132.32,141,3135.8,168.07,3129.62,201.87Z"/><ellipse class="cls-47" cx="2893.29" cy="271.34" rx="16.1" ry="11.01" transform="translate(2209.54 3095.75) rotate(-81.75)"/><path class="cls-48" d="M2925.93,195.75,2910,193l-18.32,62.78c9.29-.74,11.66,5.29,12.73,12.61Z"/><path class="cls-49" d="M2983.38,174.89q1.22-5.22,2.21-10.49c6.33-34.08,2.87-61.39-6.61-75.88-7.91-12.09-19.71-16.57-34.15-11.84-12.31,4-25.46,15.22-37.18,31.58-15.81,22.09-29.4,53.78-35.49,86.54-6.34,34.09-2.87,61.4,6.61,75.87,4.2,6.44,9.5,10.71,15.71,12.6,8.16-6.82,10.32-13.95,4.3-21.49-2.81-2.19-5.05-5.74-6.77-10.2-5-12.86-5.55-32.62-1.18-56.14,5.41-29.09,17.3-57.28,31.34-76.9,8.19-11.44,16.86-20,25.47-22.79s14.5,2.56,18.09,11.87c5,12.86,5.56,32.63,1.19,56.14-.48,2.6-1,5.19-1.6,7.77Z"/><path class="cls-58" d="M2892.72,186.39c-1.9,6.58-3.51,13.29-4.77,20.06-4.37,23.52-3.77,43.28,1.18,56.14,1.72,4.45,4,8,6.77,10.2a15.77,15.77,0,0,1,3.1,5.9c4.2-5.42,4.47-11-.22-16.91-2.81-2.19-5.05-5.74-6.77-10.2-5-12.86-5.55-32.63-1.18-56.15C2891.39,192.42,2892,189.39,2892.72,186.39Zm90.1-11.6.56.09q1.22-5.2,2.21-10.48c6.33-34.08,2.87-61.39-6.61-75.88-7.91-12.09-19.71-16.57-34.14-11.84-12.32,4-25.47,15.22-37.19,31.58-14.11,19.72-26.46,47.1-33.28,76.06,7.13-24.82,18.1-47.84,30.41-65,11.71-16.36,24.86-27.55,37.18-31.58,14.43-4.73,26.23-.25,34.14,11.84C2985.53,113.93,2989,141,2982.82,174.79Z"/><ellipse class="cls-47" cx="2747.51" cy="242.86" rx="16.1" ry="11.01" transform="matrix(0.14, -0.99, 0.99, 0.14, 2112.87, 2927.07)"/><path class="cls-48" d="M2780.14,167.26l-16-2.78-18.32,62.77c9.29-.74,11.66,5.3,12.73,12.61Z"/><path class="cls-49" d="M2837.59,146.41q1.22-5.22,2.21-10.49c6.33-34.09,2.87-61.39-6.61-75.88-7.91-12.1-19.71-16.58-34.14-11.85-12.32,4-25.47,15.22-37.19,31.59-15.8,22.09-29.4,53.77-35.49,86.54-6.33,34.08-2.87,61.39,6.61,75.87,4.2,6.43,9.5,10.71,15.71,12.6,8.16-6.83,10.33-13.95,4.3-21.49-2.81-2.19-5-5.75-6.77-10.21-4.95-12.85-5.55-32.62-1.18-56.13,5.41-29.1,17.3-57.29,31.34-76.9,8.19-11.44,16.86-20,25.47-22.8s14.51,2.56,18.09,11.87c5,12.86,5.56,32.63,1.19,56.15-.48,2.59-1,5.19-1.6,7.76Z"/><path class="cls-59" d="M2746.93,157.91c-1.9,6.57-3.51,13.29-4.77,20.06-4.37,23.51-3.77,43.27,1.19,56.14,1.71,4.45,4,8,6.76,10.19a15.77,15.77,0,0,1,3.1,5.9c4.2-5.42,4.47-11-.22-16.9-2.81-2.2-5-5.74-6.77-10.21-4.95-12.85-5.55-32.62-1.18-56.14C2745.6,163.93,2746.23,160.9,2746.93,157.91ZM2837,146.3l.56.1q1.22-5.22,2.21-10.48c6.33-34.09,2.87-61.4-6.61-75.88-7.91-12.1-19.71-16.58-34.14-11.85-12.32,4-25.47,15.22-37.19,31.59-14.11,19.72-26.46,47.09-33.28,76.05,7.13-24.82,18.1-47.84,30.41-65,11.71-16.37,24.86-27.55,37.18-31.59,14.43-4.72,26.23-.25,34.14,11.85C2839.74,85.45,2843.21,112.51,2837,146.3Z"/><path class="cls-60" d="M1083.35,2991.34,1960.63,2405,2008,2202.27s94.08,69.06,200.08,21.8,52-227.18,156.17-274,189.55,70,255.25-13.08S2674,1579,2674,1579l-197.48-105L1391.79,1695.19,966,2659.39Z"/><path class="cls-61" d="M2641.09,1198.12s28.79,3.84,30.46,34.63.88,346,.88,346-168.85-88.22-169.1-97.76,11.24-240.42,11.24-240.42l83.54-51.78Z"/><path class="cls-62" d="M1806.59,1211.76s-9.37-167.78-6.92-218.51,24.28-110.59,103.4-91.85,738,296.72,738,296.72-86.31,22-89.05,189.17-2.5,330.27-31.73,368.39-49.44,51.66-95.7,3.62-230.5-214.61-229.94-225.58S1806.59,1211.76,1806.59,1211.76Z"/><path class="cls-63" d="M1806.59,1211.76s-9.37-167.78-6.92-218.51,24.28-110.59,103.4-91.85,738,296.72,738,296.72-86.31,22-89.05,189.17-2.5,330.27-31.73,368.39-49.44,51.66-95.7,3.62-230.5-214.61-229.94-225.58S1806.59,1211.76,1806.59,1211.76Z"/><path class="cls-61" d="M2341.16,1463.24a46.55,46.55,0,0,1,15.85-.16c8.85,1.41,40.07,20.33,40.54,65.55s-10.59,180.09,11.89,210.67,58.14,51.43,58.14,51.43l-235.87-130.84,36.63-175.27Z"/><path class="cls-62" d="M2120.39,2105s30.86,14.45,58.67,4.12,58.49-64.74,59.42-199,32-428.94,105.65-447.58l-361.3-140L1931.19,1620l56.89,348.88,102.22,113.77Z"/><path class="cls-64" d="M2120.39,2105s30.86,14.45,58.67,4.12,58.49-64.74,59.42-199,32-428.94,105.65-447.58l-361.3-140L1931.19,1620l56.89,348.88,102.22,113.77Z"/><path class="cls-61" d="M1939,1246.25s66.31-.22,80,110.38,7.58,511.06,18.87,582.43,26,115.33,82.5,166l-398-266.59-70-527.78Z"/><path class="cls-65" d="M1007.49,1355.39s-22.68-360.9,156.2-400.11l775.29,291s-137.79-5.29-129.86,451.53Z"/><path class="cls-66" d="M1240.56,1121.26a114.49,114.49,0,0,1,11,9.17,122,122,0,0,1,19.76,24.19,125.46,125.46,0,0,1,13,28.06,92.37,92.37,0,0,1,4.63,28.67L1247,1189.59a37.27,37.27,0,0,0-7.09-21.19,44.3,44.3,0,0,0-15.45-13.87q-10.45-5.44-16.18-1.45t-5.77,12.94a37.39,37.39,0,0,0,3,13.89q3,7.63,15.64,19.13l26.1,24.34q24.81,22.77,34.08,44.65t9.14,42q-.09,14.31-5.19,24a34.35,34.35,0,0,1-13.87,14.56q-8.79,4.86-21,3.89a56.34,56.34,0,0,1-11.22-2.13l-.16,25.6-30.59-15.9.16-25.43a131.37,131.37,0,0,1-44.79-60.6,103.27,103.27,0,0,1-5.92-32.93l41.88,21.76a69.58,69.58,0,0,0,6.22,20.74q5,10.66,17.61,17.24,9.6,5,17.28,2.46t7.75-14.15a39.74,39.74,0,0,0-4.7-18.61q-4.75-9.19-17.38-20.7l-21.32-19.16q-20.9-18.95-32.79-41.06t-11.74-45q.09-14.33,5.4-23.9a31.09,31.09,0,0,1,14.53-13.78q8.79-4.41,20.59-3a58.49,58.49,0,0,1,8.83,1.77l.21-32,30.59,15.9Z"/><path class="cls-66" d="M1438.2,1199.06a116.1,116.1,0,0,1,11,9.18,121.94,121.94,0,0,1,19.76,24.18,125.22,125.22,0,0,1,12.95,28.06,92.13,92.13,0,0,1,4.63,28.68l-41.88-21.77a37.39,37.39,0,0,0-7.08-21.19,44.61,44.61,0,0,0-15.46-13.87q-10.45-5.43-16.18-1.44t-5.77,12.93a37.3,37.3,0,0,0,3,13.9q3,7.62,15.63,19.12l26.1,24.35q24.81,22.75,34.08,44.64t9.14,42q-.09,14.33-5.19,24a34.38,34.38,0,0,1-13.87,14.57q-8.79,4.86-21,3.89a56.11,56.11,0,0,1-11.21-2.13l-.17,25.59-30.59-15.9.16-25.43a131.29,131.29,0,0,1-44.79-60.59,103.37,103.37,0,0,1-5.91-32.93l41.87,21.76a69.66,69.66,0,0,0,6.22,20.74q5,10.66,17.61,17.24,9.6,5,17.28,2.46t7.75-14.15a39.62,39.62,0,0,0-4.7-18.61q-4.76-9.21-17.38-20.71l-21.32-19.16q-20.9-18.93-32.78-41.06t-11.75-44.94q.09-14.33,5.4-23.91a31.23,31.23,0,0,1,14.53-13.78q8.79-4.41,20.59-3a58.54,58.54,0,0,1,8.83,1.78l.21-32,30.59,15.9Z"/><path class="cls-66" d="M1635.85,1276.87a114.49,114.49,0,0,1,11,9.17,121.6,121.6,0,0,1,19.75,24.19,125.05,125.05,0,0,1,13,28.06,92.37,92.37,0,0,1,4.63,28.67l-41.88-21.76a37.27,37.27,0,0,0-7.09-21.19,44.3,44.3,0,0,0-15.45-13.87q-10.45-5.45-16.18-1.45t-5.77,12.94a37.39,37.39,0,0,0,3,13.89q3,7.63,15.64,19.13l26.1,24.34q24.81,22.77,34.08,44.65t9.14,42q-.09,14.31-5.19,24a34.32,34.32,0,0,1-13.88,14.56q-8.78,4.86-21,3.89a56.34,56.34,0,0,1-11.22-2.13l-.16,25.6-30.6-15.9.17-25.43a131.37,131.37,0,0,1-44.79-60.6,103.27,103.27,0,0,1-5.92-32.93L1595,1418.5a69.84,69.84,0,0,0,6.21,20.74q5,10.66,17.62,17.24,9.6,5,17.28,2.46t7.74-14.15a39.61,39.61,0,0,0-4.69-18.61q-4.76-9.2-17.38-20.7l-21.32-19.16q-20.9-18.94-32.79-41.06t-11.75-45q.09-14.32,5.41-23.9a31.09,31.09,0,0,1,14.53-13.78q8.79-4.41,20.59-3a58.73,58.73,0,0,1,8.83,1.77l.21-32,30.59,15.9Z"/><path class="cls-67" d="M-129.88,2731.32-284.45,2664l-7.3-189.73L730.09,1411.1,904,1482.92Z"/><path class="cls-67" d="M1859.58,2231.63c20.26-21.29,65.64-511.23,65.64-511.23l-896.37-211c-25.27-9.76-62.25-.41-82.51,20.88L-162.56,2542.14c-20.28,21.3-8.61,191.29,16.66,201.06l870.19,336.2c25.28,9.76,62.24.4,82.5-20.88l796-668.06A38.23,38.23,0,0,1,1641,2384l1.37.52a38.24,38.24,0,0,0,37.81-6.16Z"/><path class="cls-68" d="M1912,1757c20.27-21.28,16.21-46.49-9.07-56.26l-870.19-336.2c-25.27-9.76-62.24-.41-82.51,20.88L-151.06,2542.08c-20.26,21.28-16.2,46.49,9.07,56.26l870.19,336.2c25.28,9.76,62.25.4,82.51-20.88Z"/><path class="cls-69" d="M1908.11,1741.57c20.26-21.29,16.21-46.49-9.07-56.26l-870.19-336.2c-25.27-9.76-62.25-.41-82.51,20.88L-155,2526.65c-20.27,21.28-16.2,46.49,9.07,56.26l870.19,336.2c25.28,9.76,62.24.4,82.5-20.88Z"/><path class="cls-67" d="M1797.53,1790.52l-5.37-16.58L939.9,1459.17,599.54,1795.63l4.11,16.69,857.63,331.35Z"/><polygon class="cls-24" points="935.29 1442.31 1792.93 1773.66 1456.68 2126.81 599.04 1795.46 935.29 1442.31"/><path class="cls-70" d="M1034.7,1604.37a62.36,62.36,0,0,1,8.5,8.64,47,47,0,0,1,9.15,44.44,57.85,57.85,0,0,1-12.61,22.26l-41.2-23q7.28-9,4.47-17t-11.39-12.88q-10.29-5.76-20.46-3.67t-16.1,8.79a21.13,21.13,0,0,0-5.14,10.9q-1,6.21,8.18,16.85l18.64,22.45q18,21,15.92,39t-15.37,33a72.78,72.78,0,0,1-22.56,17.2,94.35,94.35,0,0,1-58.27,8.27,91.31,91.31,0,0,1-13.45-3.39l-16.94,19.18L836,1778.47l16.83-19.06q-14.58-12.21-19.15-28.55a47.09,47.09,0,0,1-.52-24.09q2.86-12.68,13.7-25.66l41.2,23a33.31,33.31,0,0,0-5.34,16.56q-.39,8.8,12,15.76a38.27,38.27,0,0,0,21.25,4.61,27,27,0,0,0,19.51-9.39q6.22-7,6-14.71T932,1698.64l-15.69-17.79q-15.27-17.55-16.56-36.06t13.83-35.61a70.48,70.48,0,0,1,22.78-17.08,94.25,94.25,0,0,1,57.44-7,94.68,94.68,0,0,1,10.53,2.75l21.18-24,30.1,16.82Z"/><path class="cls-70" d="M1256.56,1689.72a64.68,64.68,0,0,1,8.5,8.64,48.88,48.88,0,0,1,10.34,21.31,48.3,48.3,0,0,1-1.2,23.13,57.72,57.72,0,0,1-12.61,22.26l-41.2-23q7.27-9,4.47-17t-11.38-12.88q-10.31-5.76-20.47-3.68t-16.1,8.79a21.24,21.24,0,0,0-5.14,10.91q-1,6.19,8.19,16.85l18.64,22.44q17.94,21.06,15.91,39t-15.36,33a72.82,72.82,0,0,1-22.57,17.2,94.33,94.33,0,0,1-58.26,8.27,92.71,92.71,0,0,1-13.46-3.39l-16.94,19.18-30.1-16.83,16.83-19.06q-14.58-12.21-19.15-28.54a47,47,0,0,1-.51-24.09q2.85-12.69,13.69-25.67l41.2,23a33.2,33.2,0,0,0-5.33,16.56q-.4,8.81,12,15.76a38.3,38.3,0,0,0,21.26,4.61,27,27,0,0,0,19.5-9.39q6.23-7,6-14.71t-9.46-18.32l-15.7-17.79q-15.27-17.57-16.55-36.06t13.82-35.61a70.58,70.58,0,0,1,22.78-17.08,94.08,94.08,0,0,1,57.45-7,94.47,94.47,0,0,1,10.52,2.74l21.18-24,30.1,16.83Z"/><path class="cls-70" d="M1478.41,1775.08a64.08,64.08,0,0,1,8.5,8.64,47,47,0,0,1,9.15,44.44,57.74,57.74,0,0,1-12.62,22.26l-41.2-23q7.27-9,4.48-17t-11.39-12.87q-10.29-5.76-20.47-3.68t-16.09,8.79a21.15,21.15,0,0,0-5.15,10.9q-1,6.21,8.19,16.86l18.64,22.44q17.94,21.06,15.91,39t-15.36,33a73,73,0,0,1-22.57,17.2,94.21,94.21,0,0,1-58.26,8.26,91.75,91.75,0,0,1-13.46-3.39L1309.77,1966l-30.1-16.83,16.84-19.06q-14.6-12.21-19.15-28.55a47,47,0,0,1-.52-24.09q2.87-12.68,13.69-25.66l41.2,23a33.36,33.36,0,0,0-5.33,16.56q-.39,8.79,12,15.75a38.16,38.16,0,0,0,21.25,4.61,27.07,27.07,0,0,0,19.51-9.38q6.22-7,5.94-14.72t-9.46-18.31l-15.7-17.8q-15.26-17.55-16.55-36t13.83-35.62a70.45,70.45,0,0,1,22.78-17.07,87.31,87.31,0,0,1,28.23-8,88.67,88.67,0,0,1,29.21,1,96.15,96.15,0,0,1,10.52,2.75l21.19-24,30.1,16.83Z"/><path class="cls-67" d="M303.81,2472.89c23.22-24.39,18.56-53.28-10.4-64.47L172.2,2361.59c-29-11.19-71.33-.47-94.55,23.92S59.08,2438.79,88,2450l121.21,46.83C238.21,2508,280.58,2497.28,303.81,2472.89Zm289.9,112c23.22-24.39,18.57-53.28-10.4-64.47l-121.2-46.83c-29-11.19-71.34-.47-94.56,23.93S349,2550.8,377.94,2562l121.21,46.83C528.11,2620,570.48,2609.29,593.71,2584.89Zm289.9,112c23.23-24.39,18.58-53.28-10.39-64.47L752,2585.6c-29-11.19-71.33-.47-94.56,23.92s-18.57,53.28,10.4,64.47l121.2,46.83C818,2732,860.39,2721.29,883.61,2696.9Zm-435-376.11c23.22-24.39,18.57-53.28-10.4-64.47L317,2209.49c-29-11.19-71.34-.47-94.56,23.92s-18.57,53.28,10.39,64.47l121.21,46.83C383,2355.9,425.4,2345.18,448.63,2320.79Zm289.9,112c23.22-24.39,18.57-53.28-10.4-64.47l-121.2-46.83c-29-11.19-71.34-.47-94.56,23.93s-18.57,53.28,10.4,64.47L644,2456.71C672.94,2467.91,715.3,2457.19,738.53,2432.79Zm289.91,112c23.22-24.39,18.57-53.28-10.4-64.47L896.83,2433.5c-29-11.19-71.33-.47-94.56,23.92s-18.57,53.28,10.4,64.47l121.21,46.83C962.85,2579.91,1005.21,2569.19,1028.44,2544.8Zm-435-376.11c23.23-24.39,18.57-53.28-10.4-64.47l-121.2-46.83c-29-11.19-71.34-.47-94.56,23.92s-18.57,53.28,10.4,64.47l121.2,46.83C527.85,2203.8,570.22,2193.08,593.45,2168.69Zm289.9,112c23.22-24.39,18.57-53.28-10.4-64.47l-121.2-46.83c-29-11.19-71.33-.47-94.56,23.93s-18.57,53.28,10.4,64.47l121.2,46.82C817.76,2315.81,860.12,2305.09,883.35,2280.69Zm289.91,112c23.22-24.39,18.57-53.28-10.4-64.47l-121.21-46.83c-29-11.19-71.33-.47-94.56,23.92s-18.57,53.28,10.4,64.47l121.21,46.83C1107.67,2427.81,1150,2417.09,1173.26,2392.7Zm-235.6-263.57c13.84-14.53,11.06-31.75-6.2-38.42l-72.23-27.91c-17.26-6.67-42.51-.28-56.35,14.26s-11.07,31.75,6.19,38.42l72.24,27.91C898.57,2150.06,923.82,2143.67,937.66,2129.13Zm172.76,66.75c13.84-14.54,11.06-31.75-6.18-38.42L1032,2129.55c-17.26-6.67-42.49-.27-56.33,14.26s-11.08,31.75,6.18,38.42l72.25,27.91C1071.33,2216.8,1096.58,2210.42,1110.42,2195.88Zm172.77,66.75c13.84-14.54,11.08-31.75-6.18-38.42l-72.25-27.91c-17.26-6.67-42.51-.28-56.35,14.26s-11.06,31.75,6.2,38.42l72.24,27.91C1244.12,2283.56,1269.35,2277.17,1283.19,2262.63Z"/><path class="cls-24" d="M303.81,2442.68c23.22-24.39,18.56-53.28-10.4-64.47L172.2,2331.38c-29-11.19-71.33-.47-94.55,23.92S59.08,2408.58,88,2419.77l121.21,46.83C238.21,2477.79,280.58,2467.07,303.81,2442.68Zm289.9,112c23.22-24.39,18.57-53.28-10.4-64.47l-121.2-46.83c-29-11.19-71.34-.47-94.56,23.92s-18.57,53.29,10.39,64.48l121.21,46.82C528.11,2589.8,570.48,2579.07,593.71,2554.68Zm289.9,112c23.23-24.39,18.58-53.28-10.39-64.47L752,2555.39c-29-11.19-71.33-.47-94.56,23.92s-18.57,53.28,10.4,64.47l121.2,46.83C818,2701.8,860.39,2691.08,883.61,2666.69Zm-435-376.11c23.22-24.39,18.57-53.28-10.4-64.47L317,2179.28c-29-11.19-71.34-.47-94.56,23.92s-18.57,53.28,10.39,64.47l121.21,46.83C383,2325.69,425.4,2315,448.63,2290.58Zm289.9,112c23.22-24.39,18.57-53.28-10.4-64.47l-121.2-46.83c-29-11.19-71.34-.47-94.56,23.92s-18.57,53.29,10.4,64.48L644,2426.5C672.94,2437.69,715.3,2427,738.53,2402.58Zm289.91,112c23.22-24.39,18.57-53.28-10.4-64.47l-121.21-46.83c-29-11.19-71.33-.47-94.56,23.92s-18.57,53.28,10.4,64.47l121.21,46.83C962.85,2549.7,1005.21,2539,1028.44,2514.59Zm-435-376.11c23.23-24.39,18.57-53.28-10.4-64.47l-121.2-46.83c-29-11.19-71.34-.47-94.56,23.92s-18.57,53.28,10.4,64.47l121.2,46.83C527.85,2173.59,570.22,2162.87,593.45,2138.48Zm289.9,112c23.22-24.39,18.57-53.28-10.4-64.47l-121.2-46.83c-29-11.19-71.33-.47-94.56,23.92s-18.57,53.29,10.4,64.48l121.2,46.82C817.76,2285.59,860.12,2274.87,883.35,2250.48Zm289.91,112c23.22-24.39,18.57-53.28-10.4-64.47l-121.21-46.83c-29-11.19-71.33-.47-94.56,23.92s-18.57,53.28,10.4,64.47l121.21,46.83C1107.67,2397.6,1150,2386.88,1173.26,2362.49Zm-235.6-263.57c13.84-14.54,11.06-31.75-6.2-38.42l-72.23-27.91c-17.26-6.67-42.51-.28-56.35,14.26s-11.07,31.75,6.19,38.42l72.24,27.91C898.57,2119.85,923.82,2113.46,937.66,2098.92Zm172.76,66.75c13.84-14.54,11.06-31.76-6.18-38.42L1032,2099.34c-17.26-6.67-42.49-.28-56.33,14.26s-11.08,31.75,6.18,38.42l72.25,27.91C1071.33,2186.59,1096.58,2180.2,1110.42,2165.67Zm172.77,66.75c13.84-14.54,11.08-31.75-6.18-38.42l-72.25-27.91c-17.26-6.67-42.51-.28-56.35,14.25s-11.06,31.76,6.2,38.43l72.24,27.91C1244.12,2253.35,1269.35,2247,1283.19,2232.42Z"/><path class="cls-71" d="M492.51,1105.57c-.13-20.32-24.66-31.39-35.93-19.33l-646.21,690.65c-11.28,12.06-20.34,38.34-20.2,58.66l4,620c.13,20.31,23.73,41.53,35,29.47L461.1,1779.82c11.28-12.06,20.33-38.34,20.2-58.66Z"/><path class="cls-72" d="M494.15,1113.3c-.13-20.32-9.4-27-20.67-15L-172.73,1789c-11.29,12.06-20.34,38.34-20.2,58.66l4,620c.13,20.32,9.4,27,20.68,15L478,1791.91c11.28-12.05,20.33-38.34,20.2-58.65Z"/><polygon class="cls-71" points="-192.52 1911.26 494.57 1176.91 495.63 1338.69 -191.46 2073.04 -192.52 1911.26"/><ellipse class="cls-73" cx="-4.74" cy="2144.51" rx="114.3" ry="44.61" transform="translate(-1929.06 1197.96) rotate(-63.93)"/><polygon class="cls-74" points="-51.87 1988.11 344.5 1564.48 344.6 1579.14 -51.77 2002.77 -51.87 1988.11"/></g></g></svg>